<svg width="625" height="411" viewBox="0 0 625 411" fill="none" xmlns="http://www.w3.org/2000/svg">
<path opacity="0.2" d="M359.299 73.3074C370.632 68.9504 383.481 72.3933 391.117 81.8329L400.7 93.6804C406.128 100.39 414.345 104.222 422.973 104.066L438.209 103.792C450.349 103.574 461.245 111.204 465.192 122.686L470.146 137.097C472.951 145.258 479.362 151.669 487.523 154.474L501.934 159.428C513.416 163.374 521.046 174.271 520.827 186.411L520.553 201.646C520.398 210.274 524.23 218.492 530.939 223.919L542.787 233.503C552.226 241.139 555.669 253.988 551.312 265.32L545.844 279.544C542.747 287.598 543.537 296.631 547.986 304.026L555.841 317.083C562.1 327.487 560.94 340.739 552.97 349.898L542.967 361.393C537.302 367.903 534.955 376.661 536.606 385.131L539.522 400.088C541.845 412.005 536.223 424.061 525.601 429.942L512.269 437.322C504.719 441.502 499.519 448.929 498.173 457.453L495.797 472.505C493.904 484.498 484.498 493.904 472.505 495.797L457.453 498.173C448.929 499.519 441.502 504.719 437.322 512.269L429.942 525.601C424.061 536.223 412.005 541.845 400.088 539.522L385.131 536.606C376.661 534.955 367.903 537.302 361.393 542.967L349.898 552.97C340.739 560.94 327.487 562.1 317.083 555.841L304.025 547.986C296.631 543.537 287.598 542.747 279.544 545.844L265.32 551.312C253.988 555.67 241.138 552.227 233.503 542.787L223.919 530.94C218.492 524.23 210.274 520.398 201.646 520.553L186.41 520.827C174.271 521.046 163.374 513.416 159.428 501.934L154.474 487.523C151.669 479.362 145.257 472.951 137.097 470.146L122.686 465.192C111.204 461.245 103.574 450.349 103.792 438.209L104.066 422.974C104.221 414.345 100.389 406.128 93.6802 400.701L81.8327 391.117C72.3932 383.481 68.9502 370.632 73.3072 359.3L78.7757 345.076C81.8725 337.021 81.0823 327.989 76.6338 320.594L68.7786 307.537C62.5199 297.133 63.6792 283.881 71.6495 274.722L81.6528 263.227C87.3177 256.717 89.6645 247.959 88.0134 239.489L85.0979 224.532C82.7749 212.615 88.3968 200.559 99.0189 194.678L112.351 187.298C119.9 183.118 125.101 175.69 126.446 167.167L128.822 152.115C130.715 140.122 140.122 130.715 152.114 128.822L167.166 126.447C175.69 125.101 183.118 119.9 187.297 112.351L194.678 99.0191C200.559 88.397 212.615 82.7751 224.532 85.098L239.489 88.0136C247.959 89.6646 256.717 87.3179 263.227 81.653L274.722 71.6497C283.881 63.6794 297.133 62.52 307.536 68.7787L320.594 76.634C327.989 81.0824 337.021 81.8727 345.076 78.7759L359.299 73.3074Z" fill="#FF276C"/>
<path d="M295.84 69.2895C305.659 62.1479 318.961 62.1479 328.78 69.2895L341.103 78.2529C348.082 83.3289 357.012 84.9034 365.305 82.5204L379.951 78.3124C391.62 74.9596 404.121 79.5094 410.905 89.5785L419.419 102.216C424.241 109.373 432.093 113.907 440.702 114.504L455.904 115.559C468.016 116.399 478.206 124.95 481.137 136.732L484.816 151.52C486.899 159.894 492.728 166.84 500.613 170.346L514.537 176.536C525.631 181.469 532.283 192.989 531.007 205.063L529.406 220.217C528.5 228.799 531.601 237.319 537.811 243.311L548.779 253.89C557.517 262.32 559.827 275.42 554.499 286.33L547.811 300.022C544.024 307.776 544.024 316.844 547.811 324.598L554.499 338.29C559.827 349.2 557.517 362.3 548.779 370.73L537.811 381.31C531.601 387.301 528.5 395.821 529.406 404.403L531.007 419.557C532.283 431.631 525.631 443.151 514.537 448.084L500.613 454.274C492.728 457.78 486.899 464.726 484.816 473.1L481.137 487.888C478.206 499.67 468.016 508.221 455.904 509.061L440.702 510.116C432.093 510.714 424.241 515.247 419.419 522.404L410.905 535.042C404.121 545.111 391.62 549.66 379.951 546.308L365.305 542.1C357.012 539.717 348.082 541.291 341.103 546.367L328.78 555.331C318.961 562.472 305.659 562.472 295.84 555.331L283.517 546.367C276.538 541.291 267.609 539.717 259.315 542.1L244.669 546.308C233 549.66 220.499 545.111 213.715 535.042L205.201 522.404C200.379 515.247 192.527 510.714 183.918 510.116L168.716 509.061C156.604 508.221 146.414 499.67 143.483 487.888L139.804 473.1C137.721 464.726 131.893 457.78 124.007 454.274L110.083 448.084C98.9889 443.151 92.3376 431.631 93.6131 419.557L95.214 404.403C96.1206 395.821 93.0194 387.301 86.8087 381.31L75.8415 370.73C67.1034 362.3 64.7934 349.2 70.1216 338.29L76.8089 324.598C80.5959 316.844 80.5959 307.776 76.8089 300.022L70.1216 286.33C64.7934 275.42 67.1034 262.32 75.8415 253.89L86.8087 243.311C93.0194 237.319 96.1206 228.799 95.214 220.217L93.6131 205.063C92.3376 192.989 98.9889 181.469 110.083 176.536L124.007 170.346C131.893 166.84 137.721 159.894 139.804 151.52L143.483 136.732C146.414 124.95 156.604 116.399 168.716 115.559L183.918 114.504C192.527 113.907 200.379 109.373 205.201 102.216L213.715 89.5785C220.499 79.5094 233 74.9596 244.669 78.3124L259.315 82.5204C267.609 84.9034 276.538 83.3289 283.517 78.2529L295.84 69.2895Z" fill="url(#paint0_linear_2288_497)"/>
<defs>
<linearGradient id="paint0_linear_2288_497" x1="154.31" y1="121.81" x2="428.81" y2="374.31" gradientUnits="userSpaceOnUse">
<stop stop-color="#FF276C" stop-opacity="0.23"/>
<stop offset="1" stop-color="#9904F4" stop-opacity="0.31"/>
</linearGradient>
</defs>
</svg>
