<svg width="158" height="146" viewBox="0 0 158 146" fill="none" xmlns="http://www.w3.org/2000/svg">
<path d="M156 146L157.529 137.476L149.383 140.413L156 146ZM4.08319 0.840595C-3.04589 33.6165 0.235913 52.8681 10.0743 64.6887C19.8828 76.4734 36.04 80.6417 53.9991 83.725C72.0517 86.8244 91.9956 88.839 109.886 96.1242C127.714 103.384 143.453 115.868 153.009 139.916L154.403 139.362C144.675 114.882 128.603 102.126 110.452 94.7349C92.3626 87.3689 72.1588 85.3209 54.2529 82.2466C36.2534 79.1564 20.6413 75.0399 11.2273 63.7292C1.84317 52.4544 -1.55072 33.7999 5.54892 1.15941L4.08319 0.840595Z" fill="#FFCB06"/>
</svg>
