<svg width="317" height="203" viewBox="0 0 317 203" fill="none" xmlns="http://www.w3.org/2000/svg">
<path d="M212.422 193.077C180.455 196.954 148.079 197.089 115.903 194.812C114.235 194.691 114.217 192.628 115.903 192.749C147.796 194.99 180 194.89 211.72 191.071C213.379 190.871 214.098 192.863 212.422 193.063V193.077Z" fill="white"/>
<path d="M207.327 191.814C181.813 204.606 146.274 203.571 117.625 199.666C89.6405 195.833 62.4217 186.617 41.4905 171.347C21.3703 156.67 6.99092 136.604 3.83802 115.066C2.34776 104.486 3.77298 93.7781 8.01742 83.6662C12.2619 73.5542 19.2267 64.2735 28.4415 56.4508C33.6916 51.9949 39.6801 48.1103 46.2472 44.9005C49.776 43.1917 53.472 41.7046 57.3005 40.4531C59.1355 39.8267 61.0124 39.2786 62.9229 38.8112C66.0394 38.0973 68.1535 38.6827 67.4791 35.5988C65.8276 28.767 62.3767 22.2798 57.3467 16.551C52.3167 10.8221 45.8179 5.97731 38.2648 2.32555C38.0216 2.20735 37.8336 2.0309 37.7286 1.82237C37.6236 1.61385 37.6073 1.38435 37.6819 1.16795C37.7566 0.951569 37.9184 0.759796 38.1432 0.621124C38.368 0.482452 38.6439 0.404251 38.9299 0.398132C54.7372 -0.959793 70.7143 1.1716 85.057 6.55164C91.4276 8.94437 97.3784 11.9699 102.762 15.5535C109.66 20.1651 115.365 25.6904 124.167 28.1603C131.193 30.1306 138.747 30.5232 146.11 31.3442C155.223 32.3721 164.28 33.6785 173.283 35.2633C190.286 38.3067 206.993 42.2833 223.283 47.1634C248.607 54.6733 275.16 63.8393 292.729 80.6294C310.562 97.6836 312.676 120.67 302.488 140.794C279.161 186.86 211.692 198.417 154.867 197.903C124.249 197.625 92.7387 194.876 64.8274 184.34C37.9458 174.21 16.5316 157.149 7.67437 134.59C2.31627 121.027 0.147473 105.8 0.00167422 91.6087C-0.116787 79.2445 6.05234 69.1505 18.1354 61.2337C24.7055 56.9505 32.1594 53.5311 39.6042 50.2473C47.3863 46.8065 56.5716 43.7512 63.1872 38.954C72.3543 32.2865 61.228 23.4774 55.2138 18.102C49.3271 12.7784 42.8469 7.87625 35.8499 3.45348C34.9387 2.8681 35.7315 1.7045 36.7612 1.69022C54.5181 1.41464 72.1558 4.02014 88.5652 9.34285C104.403 14.5826 117.679 23.4631 133.216 29.0741C150.329 35.2276 169.575 36.9266 187.745 40.2461C205.295 43.4799 222.736 47.2848 239.321 52.8743C267.314 62.2974 294.096 77.4527 307.901 99.3113C320.959 120.013 320.977 147.14 301.285 165.415C281.029 184.183 245.071 188.673 215.884 192.613C214.225 192.842 213.515 190.85 215.182 190.622C241.025 187.131 271.133 183.376 291.891 169.805C316.804 153.508 319.683 124.454 306.835 102.331C294.077 80.3867 267.925 65.0886 240.46 55.4942C224.696 49.9903 208.029 46.214 191.253 43.0302C174.741 39.882 157.628 38.1116 141.499 33.8356C124.96 29.4453 111.428 20.986 96.2014 14.5612C78.0495 6.88002 57.2094 3.53912 36.6883 3.76042L37.5995 2.00432C48.4342 8.76463 59.9431 17.2882 66.8139 26.8468C73.0286 35.4989 66.2398 40.3603 56.8723 44.8505C43.6228 51.2039 28.8243 56.1296 17.3062 64.4747C4.58527 73.8049 1.8515 85.0197 3.08167 98.2976C5.38712 123.411 11.1371 147.847 35.2759 165.986C58.0569 183.119 88.8751 191.129 119.639 194.12C176.71 199.652 251.34 196.454 288.382 156.599C305.249 138.452 312.439 113.303 299.427 92.4296C286.842 72.2486 259.186 60.7768 233.817 52.6031C217.952 47.45 201.669 43.1241 185.075 39.6535C167.269 35.9771 149.245 34.4495 131.248 31.7368C124.019 30.7848 117.233 28.3681 111.565 24.7266C104.977 20.4434 99.3179 15.5392 91.9642 11.9199C76.1353 4.1745 57.4325 0.84169 38.8844 2.46118C39.1031 1.81871 39.3218 1.18336 39.5496 0.540894C50.5566 5.85597 59.3594 13.558 64.8912 22.7135C67.3698 26.8468 69.6843 31.6083 70.3587 36.177C70.8143 39.5393 68.9827 39.6393 65.2284 40.4602C35.8044 47.1277 14.372 68.6865 7.94773 91.5801C1.56904 114.217 10.6815 137.81 27.8948 156.199C45.6458 175.145 71.7802 187.923 100.393 194.384C117.645 198.212 135.518 200.044 153.446 199.823C171.67 199.659 190.406 197.853 206.043 190.008C207.473 189.294 208.776 191.071 207.373 191.785L207.327 191.814Z" fill="white"/>
</svg>
