<svg width="242" height="33" viewBox="0 0 242 33" fill="none" xmlns="http://www.w3.org/2000/svg">
<path d="M26.1413 26.1389H16.2669L10.2193 16.1115L8.25439 18.156V26.1389H0V0.911133H8.25439V9.05343L15.332 0.911133H25.0131L15.9361 10.3205L26.1413 26.1389ZM37.1934 16.7797C37.1934 15.6262 36.9227 14.5802 36.3808 13.6538C35.839 12.7274 35.0026 12.2612 33.8601 12.2612C32.8411 12.2612 32.0697 12.7274 31.5514 13.6598C31.0331 14.5981 30.774 15.6383 30.774 16.7797C30.774 18.0051 31.0507 19.1646 31.6046 20.2465C32.1522 21.3342 33.0001 21.8781 34.1368 21.8781C35.2324 21.8781 36.0156 21.3521 36.4868 20.2943C36.958 19.2364 37.1934 18.0649 37.1934 16.7797ZM42.9185 22.4637C40.968 25.3559 37.625 26.7093 34.1673 26.7093C30.604 26.7093 27.1696 25.3673 25.1781 22.3601C23.3514 19.6014 23.1177 15.1031 24.6565 12.1596C25.8403 9.89433 28.0101 8.25695 30.498 7.59166C33.2382 6.83109 36.2041 6.99549 38.835 8.08071C41.2952 9.09162 43.1254 11.1716 43.9223 13.644C44.7925 16.3436 44.4819 20.1448 42.9185 22.4637ZM106.886 14.9292C106.628 13.7277 106.203 12.8949 105.617 12.4307C105.026 11.9597 104.28 11.7277 103.367 11.7277C102.483 11.7277 101.783 11.9531 101.266 12.4102C100.749 12.8608 100.359 13.7005 100.089 14.9292H106.886ZM113.947 18.4921H100.161C100.161 19.06 100.258 19.5584 100.453 19.9926C101.046 21.3135 102.12 22.205 103.657 22.205C104.785 22.205 106.087 21.7506 106.329 20.5249H113.39C113.122 22.2642 112.012 23.7988 110.583 24.8072C109.142 25.8215 107.371 26.3865 105.623 26.586C103.381 26.8614 100.788 26.7865 98.7114 25.9197C96.296 24.9158 94.4924 23.0598 93.5103 20.6648C92.6082 18.3304 92.5959 15.741 93.4702 13.3879C94.3771 10.9468 96.2443 9.05883 98.6655 8.05767C101.61 6.84541 105.733 6.92761 108.58 8.34724C111.106 9.60227 112.829 11.7418 113.545 14.4422C113.899 15.8006 114.033 17.1021 113.947 18.4921H113.947ZM133.724 22.4988C132.368 25.0846 129.863 26.6997 126.843 26.6997C124.674 26.6997 123.247 25.9948 121.782 24.4905V32.4009H114.426V7.81875H120.939V10.5596C122.352 7.74464 125.848 6.7219 128.669 7.43203C131.743 8.19862 133.813 10.7828 134.549 13.6872C135.238 16.3868 134.999 20.0871 133.724 22.4988ZM127.733 16.5217C127.733 15.7447 127.476 14.8966 126.954 13.983C126.433 13.0697 125.677 12.613 124.692 12.613C123.714 12.613 122.958 13.04 122.431 13.9C121.904 14.7542 121.64 15.626 121.64 16.5217C121.64 17.6192 121.845 18.6453 122.255 19.5943C122.671 20.5434 123.48 21.0179 124.692 21.0179C125.876 21.0179 126.673 20.5255 127.101 19.541C127.488 18.5907 127.733 17.5515 127.733 16.5217ZM150.751 25.928C147.893 26.9289 144.008 27.0825 141.163 25.8985C139.371 25.1531 137.783 23.8951 136.78 22.2225C135.799 20.616 135.29 18.7652 135.29 16.8812C135.29 15.6264 135.554 14.3934 135.998 13.2227C137.026 10.5901 138.803 9.07959 141.37 8.03318C144.307 6.83545 148.67 6.87904 151.459 8.39665C154.117 9.84307 155.508 11.835 155.873 14.7706H148.347C148.214 13.8676 147.96 13.3094 147.588 12.8332C146.534 11.4836 144.147 12.143 143.386 13.4749C142.414 15.1743 142.254 17.6846 142.868 19.5474C143.273 20.7752 144.607 21.8162 145.902 21.8162C147.739 21.8162 148.12 20.5795 148.6 19.0421H155.873C155.797 22.116 153.959 24.8041 150.751 25.928ZM169.29 18.935C169.29 18.594 169.259 18.314 169.198 18.1008C168.693 18.3808 167.905 18.6245 166.834 18.8314C166.018 18.9805 165.151 19.1627 164.421 19.5623C163.387 20.0736 163.443 21.5397 164.348 22.132C165.394 22.7613 167.148 22.7094 168.028 21.8276C168.865 21.0297 169.29 20.0678 169.29 18.935H169.29ZM177.473 26.1389H169.945L169.658 24.1984C169.109 24.9077 167.883 25.492 166.645 25.9689C166.041 26.2013 165.421 26.3853 164.786 26.5023C164.151 26.6138 163.476 26.6725 162.772 26.6725C161.502 26.6725 160.341 26.4498 159.288 26.0041C158.236 25.5585 157.441 24.8608 156.891 23.9227C156.399 22.8909 156.153 21.8472 156.153 20.7802C156.153 19.4316 156.781 18.3196 157.645 17.3228C158.137 16.7542 158.619 16.4347 159.488 16.1007C159.9 15.9426 160.307 15.8051 160.707 15.6904C161.102 15.5766 161.477 15.4682 161.834 15.4147L164.917 14.9516C166.226 14.755 167.492 14.5854 168.051 14.4005C168.395 14.2865 168.801 13.9145 169.001 13.68C169.202 13.4456 169.172 13.1992 169.172 12.9472C169.172 12.6012 169.006 12.3139 168.669 12.0795C168.331 11.845 167.851 11.7277 167.227 11.7277C166.478 11.7277 165.546 11.8391 165.094 12.0619C164.643 12.2846 164.351 12.7303 164.213 13.3927H157.239C157.474 12.1908 157.431 11.4892 157.772 10.7552C158.112 10.0234 158.648 9.3951 159.38 8.87325C160.112 8.3516 161.117 7.94599 162.406 7.67718C163.028 7.54744 163.768 7.45694 164.608 7.38989C165.455 7.32222 166.393 7.28444 167.434 7.28444C169.968 7.28444 171.866 7.58584 173.132 8.1872C174.395 8.78773 175.218 9.27159 175.603 10.1739C175.985 11.0715 176.243 12.2377 176.364 13.6683V23.354C176.364 24.3508 176.735 25.0895 177.473 25.5703V26.1389ZM197.932 26.1389H190.67V19.2919H185.291V26.1389H178.098L178.091 8.10438L178.098 7.82871H185.291V13.9639H190.588V7.82871H197.932L197.925 25.8107L197.932 26.1389ZM218.113 13.2251H211.859V26.1389H204.574V13.2251H198.267V7.82871H218.113V13.2251ZM241.704 20.2795C241.704 21.8878 240.937 23.3008 239.707 24.3086C238.087 25.6479 235.848 26.1389 233.792 26.1389H222.55V13.2251H218.35V7.82871H229.559V14.2552H233.394C235.528 14.2552 237.895 14.6726 239.587 16.0746C240.859 17.1285 241.704 18.6025 241.704 20.2795ZM234.463 20.2982C234.463 19.1414 233.823 18.656 232.722 18.5242C232.499 18.5242 232.057 18.5055 231.402 18.4775C230.747 18.4483 229.87 18.4366 229.559 18.4366V21.9729L231.38 22.008C231.877 22.0185 232.286 21.9976 232.602 21.9729C233.721 21.8899 234.463 21.586 234.463 20.2982V20.2982ZM58.4954 26.1387H54.9653L51.1081 13.907L51.7038 18.7013V26.1387H45.2627V7.72306H53.5235L56.7304 17.8955L59.9373 7.72306H68.1983V26.1387H61.7569V18.7013L62.3527 13.907L58.4954 26.1387ZM82.617 26.1387H79.0869L75.2296 13.907L75.8254 18.7013V26.1387H69.384V7.72306H77.645L80.8519 17.8955L84.0588 7.72306H92.3196V26.1387H85.8784V18.7013L86.4742 13.907L82.617 26.1387Z" fill="white"/>
</svg>
