<svg width="23" height="22" viewBox="0 0 23 22" fill="none" xmlns="http://www.w3.org/2000/svg">
<path d="M16.663 17.0027C16.2547 16.1005 15.9703 15.5329 15.8077 15.5729C15.6451 15.6129 15.6527 16.2413 15.8681 17.2352C15.9997 17.8182 16.166 18.3921 16.3661 18.954C16.4805 19.2752 16.608 19.6072 16.7517 19.9478L16.9844 20.4717C17.0452 20.6414 17.1425 20.7953 17.2696 20.9229C17.3968 21.0504 17.5507 21.1488 17.7211 21.2111C17.8887 21.2589 18.0676 21.2591 18.2376 21.2116C18.3223 21.1865 18.405 21.1547 18.4849 21.1164L18.6594 21.0277C18.8177 20.9455 18.975 20.869 19.1265 20.7916C19.4248 20.6301 19.7162 20.4735 19.9914 20.3232C20.5454 20.0204 21.0314 19.7306 21.4447 19.4623C22.2473 18.9426 22.7143 18.5607 22.628 18.3956C22.5417 18.2305 21.9548 18.3707 21.049 18.687C20.5955 18.848 20.0677 19.0568 19.4836 19.2955C19.2136 19.4169 18.9275 19.5446 18.6321 19.6738C18.953 19.1643 19.2199 18.6241 19.4284 18.0621C19.6857 17.3776 19.8757 16.6715 19.9959 15.9539C20.1864 14.9374 20.2538 13.905 20.1968 12.8786C20.0158 9.98669 18.902 7.25129 17.0191 5.07479C15.9903 3.87861 14.7655 2.86361 13.394 2.07057C12.0999 1.32017 10.681 0.796847 9.19808 0.523027C8.85089 0.46069 8.50033 0.41583 8.14773 0.388619C7.97382 0.376306 7.80676 0.359119 7.61464 0.364769C7.42251 0.37042 7.2602 0.359921 7.10053 0.367671C6.466 0.409907 5.83626 0.51981 5.22222 0.695474C4.19521 0.964666 3.21134 1.38521 2.30393 1.94288C0.791017 2.90154 0.170657 3.8451 0.24586 3.90739C0.321064 3.96968 1.08733 3.22432 2.61077 2.46946C3.4983 2.02516 4.43773 1.69626 5.40523 1.49107C5.9766 1.37005 6.55745 1.30643 7.1389 1.3012C7.28758 1.2991 7.43608 1.30445 7.58385 1.31722C7.73349 1.33168 7.89262 1.35952 8.05044 1.37823C8.36713 1.40989 8.6846 1.48625 9.00761 1.54862C10.3563 1.86283 11.6388 2.39462 12.8045 3.12299C14.0155 3.88072 15.0932 4.82674 15.9976 5.92593C17.6111 7.89395 18.5593 10.3234 18.7123 12.8815C18.8123 14.4488 18.6217 16.0281 18.1501 17.5413C17.9278 18.2022 17.7398 18.7079 17.5922 19.0743L17.36 18.5802L16.648 17.0033" fill="#DBCECE"/>
</svg>
