<svg width="1657" height="201" viewBox="0 0 1657 201" fill="none" xmlns="http://www.w3.org/2000/svg">
<path fill-rule="evenodd" clip-rule="evenodd" d="M185.974 13.0436C145.066 15.4872 113.965 49.2722 113.544 88.9833C98.2291 94.6215 85.6226 105.861 78.2089 120.218C23.9367 123.716 -19 168.844 -19 224C-19 281.438 27.5624 328 85 328C123.951 328 157.9 306.587 175.719 274.891C186.987 268.498 195.783 258.254 200.317 245.947C236.835 273.099 281.992 289 330.458 289H402.682C446.711 289 486.33 269.467 513.146 238.459C516.732 238.999 520.403 239.279 524.14 239.279C533.286 239.279 542.039 237.601 550.11 234.535C561.063 246.844 577.026 254.598 594.799 254.598C603.938 254.598 612.597 252.549 620.343 248.884C628.094 263.689 643.604 273.792 661.474 273.792C674.626 273.792 686.499 268.32 694.942 259.529C700.8 261.426 707.051 262.451 713.541 262.451C738.488 262.451 759.897 247.305 769.076 225.708C784.041 241.853 805.352 252 829 252C852.473 252 873.643 242.003 888.591 226.065C897.665 248.603 919.735 264.513 945.521 264.513C954.471 264.513 962.974 262.596 970.641 259.15C979.611 271.756 994.341 279.978 1010.99 279.978C1031.49 279.978 1049.08 267.51 1056.6 249.741C1066.95 257.711 1079.91 262.451 1093.99 262.451C1120.07 262.451 1142.35 246.171 1151.23 223.218C1152.08 223.254 1152.93 223.272 1153.79 223.272C1168.9 223.272 1182.7 217.614 1193.17 208.301C1197.61 236.645 1222.14 258.327 1251.73 258.327C1259.37 258.327 1266.67 256.884 1273.37 254.255C1283.26 273.218 1303.1 286.164 1325.97 286.164C1349.76 286.164 1370.28 272.15 1379.72 251.926C1393.88 265.471 1413.08 273.792 1434.23 273.792C1460.19 273.792 1483.23 261.243 1497.6 241.878C1506.37 282.518 1542.52 312.971 1585.79 312.971C1635.61 312.971 1676 272.58 1676 222.756C1676 172.932 1635.61 132.542 1585.79 132.542C1554.12 132.542 1526.26 148.857 1510.17 173.539C1500.85 140.367 1470.38 116.046 1434.23 116.046C1396.95 116.046 1365.72 141.901 1357.48 176.655C1348.35 170.916 1337.55 167.597 1325.97 167.597C1318.33 167.597 1311.04 169.04 1304.33 171.668C1294.44 152.705 1274.6 139.759 1251.73 139.759C1236.62 139.759 1222.82 145.417 1212.35 154.73C1207.91 126.386 1183.38 104.704 1153.79 104.704C1129.58 104.704 1108.76 119.213 1099.55 140.008C1097.72 139.843 1095.86 139.759 1093.99 139.759C1065.02 139.759 1040.75 159.833 1034.31 186.828C1027.36 183.109 1019.42 181 1010.99 181C1008.26 181 1005.59 181.22 1002.98 181.644C994.268 158.38 971.828 141.821 945.521 141.821C932.04 141.821 919.575 146.169 909.452 153.54C902.033 115.789 868.833 87 829 87C789.329 87 756.237 115.556 748.64 153.08C738.753 145.993 726.634 141.821 713.541 141.821C687.584 141.821 665.458 158.217 656.952 181.218C655.675 181.341 654.413 181.516 653.169 181.741C647.211 154.995 623.34 135 594.799 135C593.324 135 591.861 135.053 590.413 135.158C580.957 114.966 562.545 99.8052 540.291 94.7891C519.528 37.0391 462.581 -3.4794 397.16 0.428513L185.974 13.0436Z" fill="white"/>
</svg>
