<svg width="54" height="54" viewBox="0 0 54 54" fill="none" xmlns="http://www.w3.org/2000/svg">
<ellipse cx="26.0645" cy="52.2878" rx="5.47903" ry="1.7122" fill="#E8E8E8"/>
<path d="M39.5503 12.2224C46.9572 19.6293 46.9569 32.6466 39.55 40.0535L27.808 51.7956C26.0625 53.5411 24.7236 52.0499 22.9782 50.3045L14.0779 40.0535C6.67099 32.6466 6.67099 20.6566 14.0779 13.2497C21.4848 5.84282 32.1434 4.81552 39.5503 12.2224Z" fill="#EB433C"/>
<path d="M37.4943 30.6639C37.1259 30.6639 36.795 30.4388 36.6596 30.0961L32.5292 19.6383C32.2211 18.8581 31.1472 18.7812 30.731 19.5095L28.3036 23.7567C27.9193 24.4291 26.9494 24.4283 26.5663 23.7552L24.1515 19.5126C23.7364 18.7834 22.6619 18.8588 22.3527 19.6388L18.2081 30.0968C18.0725 30.4391 17.7416 30.6639 17.3734 30.6639C16.8776 30.6639 16.4756 31.0659 16.4756 31.5617V31.6461C16.4756 32.1886 16.9154 32.6284 17.4579 32.6284H23.2429C23.7853 32.6284 24.2251 32.1886 24.2251 31.6461V31.1448C24.2251 30.8792 24.0098 30.6639 23.7442 30.6639C23.4134 30.6639 23.1814 30.3376 23.29 30.0251L23.5153 29.3771C23.7843 28.6036 24.8322 28.4921 25.2578 29.1918L26.5793 31.3642C26.9688 32.0046 27.8984 32.0046 28.288 31.3642L29.6094 29.1918C30.0351 28.4921 31.083 28.6036 31.352 29.3771L31.5772 30.0251C31.6859 30.3376 31.4539 30.6639 31.123 30.6639C30.8575 30.6639 30.6422 30.8792 30.6422 31.1448V31.6461C30.6422 32.1886 31.0819 32.6284 31.6244 32.6284H37.4094C37.9519 32.6284 38.3917 32.1886 38.3917 31.6461V31.5613C38.3917 31.0657 37.9899 30.6639 37.4943 30.6639Z" fill="white"/>
</svg>
