<svg width="71" height="70" viewBox="0 0 71 70" fill="none" xmlns="http://www.w3.org/2000/svg">
<circle cx="35.4789" cy="35.0222" r="31.4271" fill="#26325E"/>
<circle cx="35.5" cy="35" r="35" fill="url(#paint0_radial_2025_1935)"/>
<path d="M25.8367 42.6148C25.5155 41.7726 25.3894 40.9647 25.4332 40.1369C25.5183 38.5297 25.9024 37.0044 26.7849 35.6402C27.7629 34.128 29.1499 33.1771 30.9046 32.7859C31.4016 32.675 31.9196 32.5983 32.4263 32.6066C33.1127 32.6181 33.7165 32.8743 34.086 33.5104C34.361 33.9842 34.4364 34.5027 34.3869 35.0372C34.2314 36.7138 33.2152 37.8337 31.9346 38.7708C31.3027 39.233 30.6008 39.5707 29.8564 39.8089C29.6507 39.8748 29.5423 39.9677 29.5765 40.1765C29.6283 40.4925 29.6602 40.8194 29.7702 41.116C29.8823 41.4182 30.1232 41.5819 30.4864 41.5928C31.2006 41.6142 31.8432 41.3979 32.4713 41.0988C33.4568 40.6297 34.1538 39.8417 34.7946 38.9933C35.021 38.6935 34.9911 38.3238 35.0279 37.9807C35.156 36.7866 35.2618 35.59 35.375 34.3943C35.44 33.7087 35.5164 33.0239 35.5597 32.3368C35.5752 32.0913 35.6469 31.9598 35.8937 31.9102C37.0427 31.6791 38.1896 31.4387 39.3379 31.2045C39.4063 31.1906 39.4801 31.2028 39.6064 31.2028C39.583 31.5092 39.5656 31.7943 39.5385 32.0785C39.4869 32.6179 39.4301 33.1568 39.3747 33.6958C39.2281 35.1236 39.0771 36.5508 38.9368 37.9791C38.8996 38.3584 38.8817 38.7406 38.8779 39.1215C38.8737 39.5284 39.0728 39.655 39.4803 39.5522C40.2355 39.3616 40.7073 38.8316 41.0915 38.2065C41.5872 37.4003 41.931 36.5284 42.1026 35.5977C42.2325 34.8927 42.33 34.1815 42.4307 33.4715C42.4549 33.3015 42.4344 33.125 42.4344 32.9125C42.2793 32.9287 42.161 32.9169 42.0618 32.9551C41.2472 33.2683 40.3802 32.268 40.6286 31.4001C40.7686 30.9113 41.106 30.6022 41.5587 30.4125C41.9947 30.23 42.446 30.1075 42.9251 30.2098C43.6891 30.3729 44.0467 30.9231 44.1992 31.6239C44.5239 33.1144 44.3977 34.595 44.0684 36.0714C43.7713 37.4029 43.2828 38.6448 42.4719 39.7521C41.3959 41.2212 39.965 42.0933 38.1658 42.3926C37.5522 42.4946 36.9656 42.4545 36.3868 42.2665C35.8472 42.0912 35.4602 41.7219 35.1973 41.2214C35.1506 41.1323 35.1047 41.0428 35.0368 40.912C34.8806 41.0824 34.7385 41.2226 34.6133 41.3765C33.9062 42.2458 33.0003 42.8486 32.0405 43.4085C30.5969 44.2507 29.0013 44.5908 27.4047 44.9391C26.5325 45.1294 25.6519 45.2888 24.7689 45.4198C24.0598 45.5249 23.3423 45.6019 22.6264 45.6231C22.1398 45.6375 21.8289 45.79 21.5428 46.2045C20.9028 47.1323 20.2156 48.0306 19.5037 48.9053C18.6561 49.9467 17.5996 50.7264 16.346 51.2303C11.9192 53.0754 6.94495 51.6302 7.673 47.1184C8.29925 44.5134 9.94644 42.8377 12.4334 41.9621C13.9937 41.4129 15.614 41.3105 17.2542 41.4636C17.3711 41.4745 17.4887 41.4792 17.606 41.483C18.1179 41.5004 18.1476 41.4787 18.1833 40.9591C18.1992 40.7251 18.1935 40.489 18.1857 40.2543C18.1648 39.6387 18.1374 39.0234 18.1129 38.4079C18.0511 36.8542 17.9967 35.2999 17.9241 33.7467C17.8982 33.191 17.8369 32.6363 17.7762 32.0828C17.7361 31.7165 17.7239 31.7149 17.3372 31.7121C16.7351 31.7078 16.1297 31.7463 15.5313 31.6984C14.1622 31.589 13.0202 31.0609 12.425 29.7361C12.0154 28.8244 12.1196 27.9046 12.552 27.0165C12.5838 26.9512 12.6304 26.8923 12.6754 26.8345C12.9922 26.4264 13.3664 26.3427 13.7819 26.6396C14.1627 26.9116 14.5062 27.2356 14.872 27.5294C15.3878 27.9435 15.9477 28.2371 16.6412 28.1857C17.1686 28.1466 17.3166 28.0397 17.3908 27.524C17.5243 26.596 17.6171 25.6615 17.7707 24.7372C18.0742 22.9109 18.5654 21.1522 19.8216 19.7136C20.7256 18.6783 21.8523 18.0096 23.2289 17.8931C24.3917 17.7947 25.3705 18.2735 26.0506 19.2147C27.3357 20.9932 27.4438 22.8958 26.5003 24.8643C26.0711 25.7599 25.4019 26.4895 24.8015 27.2653C24.2542 27.9727 23.6783 28.6582 23.1424 29.3739C22.8262 29.796 22.5448 30.26 22.5041 30.8008C22.4748 31.191 22.5158 31.589 22.5522 31.981C22.6556 33.0893 22.7586 34.198 22.8887 35.3034C22.9935 36.1932 23.0913 37.0814 23.0423 37.9785C22.9984 38.7833 22.9518 39.5879 22.8927 40.3917C22.8465 41.0197 22.78 41.6463 22.7213 42.2733C22.707 42.4254 22.7489 42.5311 22.9191 42.5554C23.006 42.5677 23.0906 42.6118 23.1764 42.6124C24.0401 42.6164 24.9039 42.6148 25.8367 42.6148ZM17.5716 45.1577C16.6005 44.9544 15.6409 44.8452 14.6778 44.9699C14.2215 45.029 13.7778 45.2055 13.3367 45.354C13.0603 45.4471 12.8015 45.5906 12.5319 45.7051C11.8792 45.9823 11.4296 46.4779 11.1159 47.0891C10.6891 47.9201 11.1673 48.8177 12.0825 48.9967C13.0214 49.1801 13.8997 48.988 14.7098 48.5394C16.0094 47.8201 16.9012 46.7126 17.5268 45.3806C17.5558 45.3192 17.5551 45.2444 17.5716 45.1577ZM21.9746 25.5161C22.2086 25.2081 22.4173 24.9472 22.6111 24.6759C23.142 23.9329 23.6147 23.1564 23.8605 22.2673C24.0047 21.7458 24.003 21.2243 23.7504 20.7261C23.5834 20.3969 23.3413 20.3248 23.0329 20.5381C22.9042 20.6272 22.7809 20.749 22.7043 20.8838C22.5604 21.1374 22.4068 21.4002 22.3384 21.6791C22.1748 22.3456 22.0255 23.0193 21.9329 23.6985C21.8546 24.2737 21.7492 24.8623 21.9746 25.5161ZM29.6088 38.2206C29.6437 38.2364 29.6571 38.2484 29.6682 38.2465C29.7108 38.2392 29.7558 38.2345 29.7942 38.2166C30.6475 37.816 31.2736 37.1774 31.6915 36.3426C31.9677 35.7907 32.0381 35.1959 31.8995 34.5908C31.8288 34.2824 31.7098 34.234 31.424 34.3568C31.1177 34.4885 30.8987 34.7206 30.7161 34.9926C30.0581 35.9727 29.7973 37.0859 29.6088 38.2206Z" fill="white"/>
<path d="M55.8599 27.817C55.8599 28.0119 55.8599 28.1408 55.8599 28.319C55.9658 28.2509 56.0478 28.2084 56.1184 28.1514C56.914 27.5085 57.851 27.1803 58.8447 27.1598C60.3121 27.1298 61.2418 27.8066 61.3962 29.4105C61.4923 30.409 61.337 31.4004 61.1907 32.3884C61.107 32.9537 60.9903 33.5229 60.9934 34.0898C60.9979 34.9092 61.1589 35.1315 61.9926 34.8915C62.2914 34.8055 62.5594 34.6121 62.837 34.47C63.1004 35.7064 62.3899 36.9888 61.1902 37.5188C60.6208 37.7703 60.027 37.9011 59.3948 37.8794C58.0987 37.8348 57.3535 36.8607 57.2654 35.8158C57.194 34.9689 57.2442 34.1186 57.3766 33.2707C57.4938 32.5197 57.5388 31.7566 57.5936 30.9972C57.6078 30.7985 57.5593 30.5881 57.5051 30.3927C57.378 29.9334 57.1223 29.8224 56.6753 30.0111C56.2731 30.1808 56.0336 30.5035 55.839 30.8781C55.5185 31.4948 55.477 32.1691 55.4089 32.8393C55.2654 34.2529 55.1191 35.6661 54.98 37.08C54.9369 37.5176 54.9185 37.9574 54.8789 38.3953C54.8436 38.7845 54.7839 38.8423 54.4145 38.9195C53.3118 39.1498 52.2094 39.3822 51.1061 39.6107C51.0378 39.6247 50.9642 39.6126 50.8379 39.6126C50.8549 39.4026 50.8707 39.2089 50.891 38.9582C50.7448 39.0546 50.6339 39.1151 50.5373 39.1931C49.6691 39.8954 48.6709 40.3125 47.5699 40.4152C46.3151 40.5321 45.2092 39.9876 44.9004 38.4954C44.7645 37.8391 44.7828 37.1884 44.8875 36.5294C45.03 35.6332 45.146 34.7329 45.2692 33.8337C45.2977 33.6256 45.3672 33.4915 45.6058 33.4449C46.3963 33.2908 47.1815 33.1109 47.9696 32.9451C48.3964 32.8553 48.825 32.7739 49.3015 32.679C49.3015 32.8784 49.3199 33.0369 49.2986 33.1897C49.165 34.1471 49.018 35.1025 48.8855 36.0599C48.8394 36.3924 48.7974 36.7287 48.7976 37.0635C48.7979 37.458 48.9252 37.5587 49.3175 37.5219C49.9125 37.4661 50.3544 37.1442 50.7074 36.6839C51.0389 36.2518 51.198 35.7508 51.2541 35.2182C51.374 34.0819 51.4881 32.945 51.5928 31.8073C51.6693 30.9759 51.7254 30.1426 51.794 29.3104C51.806 29.1649 51.8465 29.0214 51.8548 28.876C51.8673 28.6522 52.0105 28.5834 52.1981 28.5454C53.2749 28.327 54.3511 28.1057 55.4278 27.887C55.5546 27.8615 55.6835 27.8455 55.8599 27.817Z" fill="white"/>
<path d="M44.5535 23.8523C44.4252 23.7593 44.2476 23.6825 44.2539 23.6257C44.2733 23.4498 44.3149 23.2196 44.4366 23.1259C44.5879 23.0097 44.639 22.9045 44.6467 22.7339C44.6531 22.5883 44.7075 22.4432 44.7035 22.2989C44.6939 21.9634 44.8567 21.8066 45.1711 21.724C45.5924 21.6136 46.0029 21.4616 46.483 21.3064C46.4342 21.7927 46.3917 22.219 46.3465 22.6685C46.544 22.6409 46.6983 22.6192 46.8504 22.598C46.9533 23.029 46.9116 23.1477 46.5572 23.2726C46.3522 23.3448 46.2888 23.4869 46.2694 23.6692C46.2242 24.0916 46.1868 24.515 46.1476 24.9382C46.1205 25.2298 46.0856 25.5213 46.0724 25.8139C46.0574 26.145 46.2103 26.2376 46.5067 26.0883C46.7714 25.9549 46.8784 25.7423 46.8602 25.4418C46.8124 24.658 47.0024 23.9261 47.4096 23.2574C47.9143 22.4292 48.692 22.0223 49.6304 21.9393C50.0972 21.8979 50.4886 22.1036 50.7052 22.5555C50.768 22.6861 50.8272 22.8183 50.8859 22.9451C51.4223 22.8635 51.4774 22.8039 51.525 22.3376C51.5488 22.1047 51.5559 21.8578 51.6417 21.6462C51.7503 21.3785 52.0597 21.5048 52.2713 21.4261C52.5293 21.3302 52.8105 21.2882 53.0855 21.2529C53.1687 21.2422 53.2648 21.3309 53.3848 21.3884C53.5898 21.2845 53.8426 21.1393 54.1087 21.0259C54.4468 20.8817 54.7459 20.992 54.9905 21.2406C55.1673 21.42 55.1911 21.7869 55.0687 22.0287C54.9441 22.2747 54.478 22.5853 54.2378 22.5139C54.046 22.457 53.8874 22.2886 53.6836 22.1488C53.3008 22.2622 53.2292 22.3534 53.1908 22.7832C53.1098 23.6881 53.0219 24.5923 52.9403 25.4972C52.9266 25.6494 52.9158 25.8078 52.7383 25.8476C52.2433 25.9581 51.7456 26.0552 51.1897 26.1698C51.2681 25.2667 51.3407 24.4285 51.4135 23.5873C50.9472 23.6428 50.9323 23.6605 50.9125 24.1203C50.8697 25.1131 50.4617 25.9172 49.5997 26.4243C48.8517 26.8642 48.0592 26.9658 47.1821 26.4349C47.1395 26.5014 47.0912 26.6112 47.013 26.692C46.7238 26.9908 46.3917 27.2208 45.9855 27.3457C45.2547 27.5703 44.9166 27.4826 44.4125 26.8819C44.2893 27.0056 44.1695 27.1284 44.0468 27.2483C43.3721 27.9075 42.5699 28.2355 41.6203 28.1863C41.0764 28.1582 40.6334 27.8073 40.5198 27.2748C40.4406 26.9034 40.3557 26.5266 40.4769 26.1438C40.4929 26.0934 40.4792 26.0336 40.4792 25.9763C40.1378 25.9443 40.1575 26.1667 40.1535 26.3745C40.1418 26.9936 39.9615 27.5604 39.5927 28.0573C38.9777 28.8859 38.1455 29.2114 37.1302 29.0745C36.4548 28.9833 36.1753 28.5256 36.1192 28.0128C35.9905 26.8372 36.2497 25.7571 37.1832 24.9402C37.7365 24.4561 38.3907 24.2266 39.1343 24.3003C39.5583 24.3423 39.826 24.5879 39.9813 24.9722C40.0246 25.0794 40.0682 25.1864 40.1107 25.2913C40.4992 25.229 40.7576 25.0483 40.9451 24.704C41.3566 23.9483 42.0265 23.5147 42.8647 23.3745C43.1417 23.3281 43.4496 23.3645 43.7247 23.4352C44.0129 23.5093 44.211 23.8964 44.1953 24.2096C44.1794 24.5299 43.9754 24.7865 43.6568 24.8869C43.291 25.0023 43.1291 24.8713 43.1327 24.4924C43.1338 24.3774 43.0618 24.2617 43.0234 24.1464C42.9027 24.2124 42.7292 24.2487 42.6715 24.3505C42.5285 24.6029 42.4028 24.8768 42.3347 25.1577C42.2106 25.669 42.1026 26.1905 42.2598 26.7191C42.3425 26.9972 42.4179 27.0566 42.6986 27.0271C43.4303 26.9503 43.9294 26.5223 44.3166 25.9341C44.3475 25.8872 44.3656 25.8259 44.3715 25.7694C44.4342 25.1722 44.4938 24.5746 44.5527 23.9768C44.5584 23.9198 44.5535 23.8622 44.5535 23.8523ZM48.605 24.7917C48.6178 24.9272 48.6156 25.0909 48.6517 25.2456C48.7483 25.6593 49.0464 25.7484 49.3405 25.4333C49.4843 25.279 49.5752 25.0667 49.6586 24.8675C49.7255 24.7076 49.7355 24.5251 49.788 24.3579C49.85 24.1606 49.8479 23.9999 49.6761 23.8448C49.4659 23.6551 49.4569 23.4114 49.5745 23.1603C49.6054 23.0943 49.6537 23.0288 49.6582 22.9606C49.6626 22.8972 49.6341 22.8167 49.5912 22.7709C49.5658 22.7438 49.4633 22.7462 49.4315 22.775C49.2823 22.9104 49.1003 23.0367 49.0129 23.2083C48.7659 23.6935 48.6382 24.219 48.605 24.7917ZM37.8661 27.1135C37.8661 27.2455 37.8376 27.386 37.8736 27.5074C37.916 27.6501 37.9867 27.8481 38.0958 27.89C38.2136 27.9353 38.3998 27.8474 38.5374 27.7798C38.6194 27.7395 38.6939 27.635 38.7229 27.5439C38.8375 27.1826 38.9373 26.8164 39.0311 26.449C39.046 26.3906 39.0243 26.2906 38.9817 26.2553C38.6591 25.9883 38.6746 25.6876 38.8584 25.3527C38.886 25.3023 38.8843 25.1956 38.8501 25.1619C38.8091 25.1216 38.6911 25.0973 38.6541 25.1265C38.509 25.2408 38.3423 25.3566 38.2568 25.5121C37.9849 26.0067 37.8453 26.5433 37.8661 27.1135Z" fill="white"/>
<path d="M31.3469 24.85C30.5412 25.4947 30.4017 26.1546 30.8058 27.2393C30.3998 27.3288 29.9866 27.4243 29.637 27.1737C29.2995 26.9317 29.2524 26.5318 29.3393 26.1352C29.4326 25.7089 29.6447 25.3364 29.9503 25.0328C31.0648 23.925 32.4035 23.3176 33.9854 23.4382C35.0508 23.5193 35.6534 24.0759 35.91 25.1917C36.2206 26.5418 35.9411 27.822 35.2 28.9767C34.7648 29.6545 34.144 30.1211 33.2808 30.1173C33.0786 30.1164 32.8767 30.0614 32.6639 30.0297C32.1639 30.4729 31.4939 30.386 30.8477 30.5823C30.7534 29.9047 30.9722 29.2972 30.992 28.6784C31.012 28.0508 31.1024 27.4255 31.1619 26.7991C31.221 26.1749 31.2802 25.5511 31.3469 24.85ZM33.0357 24.2363C33.0631 24.3183 33.0912 24.3599 33.0878 24.3989C33.023 25.1281 32.9554 25.8572 32.8866 26.5861C32.8164 27.33 32.7374 28.073 32.6762 28.8175C32.6477 29.1657 32.7633 29.247 33.0939 29.1353C33.4805 29.0045 33.7177 28.7133 33.8931 28.3608C34.0986 27.9479 34.1591 27.4976 34.2541 27.0529C34.4061 26.3415 34.3114 25.6491 34.1448 24.9626C34.0218 24.4553 33.6204 24.1293 33.127 24.1489C32.6175 24.169 32.1405 24.3379 31.7171 24.6508C32.1549 24.5133 32.5925 24.3756 33.0357 24.2363Z" fill="white"/>
<path d="M49.6777 30.6397C49.7004 31.1945 49.4666 31.6552 49.0657 31.9976C48.3395 32.6176 47.5236 32.9063 46.5461 32.6112C45.6627 32.3445 44.9859 31.3563 45.4509 30.3096C46.0341 28.997 47.9648 28.3864 49.127 29.4026C49.4894 29.7197 49.6813 30.1286 49.6777 30.6397Z" fill="white"/>
<path d="M43.9973 62.1037L43.9973 62.1037C44.4665 61.9798 44.8246 61.6212 44.959 61.174C45.1096 61.3165 45.2713 61.4525 45.4437 61.5818C46.5737 62.4293 47.889 62.7872 49.332 62.6741L49.3353 62.6738C49.4375 62.6655 49.5396 62.6544 49.6413 62.6407C49.7853 62.8073 49.9732 62.9384 50.1927 63.0145L52.509 63.8181C53.353 64.111 54.2469 63.5301 54.3222 62.6399L54.456 61.0575L54.4623 61.0659L55.2954 60.4411L54.4623 61.0659C55.2456 62.1103 56.6163 62.5899 58.1969 62.7655C59.8127 62.9451 61.2544 62.7654 62.3883 62.0581C63.0463 61.648 63.5388 61.075 63.7746 60.3347C64.012 59.6067 63.9691 58.8486 63.7292 58.1047C63.5235 57.4418 63.0454 56.8938 62.4811 56.4383C62.3446 56.327 62.1789 56.2036 61.986 56.0685C62.1597 55.9609 62.3112 55.8132 62.4254 55.6305L62.4561 55.5813L63.5514 53.882C63.9424 53.2754 63.7955 52.4695 63.2156 52.0399L63.148 51.9899C63.1471 51.9892 63.1461 51.9885 63.1452 51.9878C62.3602 51.4005 61.2253 51.1445 59.94 51.0622L59.94 51.0621L59.9332 51.0617C58.7871 50.9958 57.784 51.0564 56.991 51.31C56.2792 51.5346 55.6632 51.8741 55.1933 52.3392L55.5316 48.3399C55.6029 47.4968 54.9001 46.7915 54.0568 46.8597L51.5183 47.065C50.8214 47.1214 50.2789 47.6937 50.2599 48.3926L50.1363 52.9396C49.563 52.8487 49.0308 52.8141 48.5486 52.849L48.5486 52.8489L48.5355 52.85C47.1742 52.9657 45.9913 53.4742 45.0364 54.3833L45.0385 53.6818C45.0408 52.9404 44.4611 52.3579 43.7632 52.3109C44.2163 51.7858 44.4364 51.149 44.4364 50.4571C44.4364 49.7454 44.1985 49.0949 43.7178 48.5637C43.2359 48.0311 42.6033 47.7241 41.8691 47.7241C41.1348 47.7241 40.5022 48.0311 40.0204 48.5637C39.5397 49.0949 39.3017 49.7454 39.3017 50.4571C39.3017 51.1717 39.5366 51.8276 40.0204 52.3624C40.2228 52.5861 40.4518 52.77 40.7038 52.9081L40.6776 52.9137C40.1099 53.0343 39.6939 53.4937 39.609 54.0433C39.0821 53.6084 38.2507 53.5911 37.7193 54.1727L37.1119 54.8375L37.4428 47.4746C37.4743 46.7747 36.9724 46.164 36.2797 46.0593L33.1398 45.5844C32.2778 45.454 31.5151 46.1518 31.5684 47.022L32.528 62.6924C32.5759 63.4737 33.2679 64.056 34.0459 63.9696L35.5543 63.802C36.1005 63.7413 36.5445 63.3638 36.7064 62.8615L37.3572 63.4431L38.0511 62.6666L37.3572 63.4431C37.8615 63.8938 38.6194 63.9088 39.1411 63.4783L40.2867 62.533C40.4416 62.4052 40.56 62.2524 40.6424 62.0863C40.9622 62.5252 41.5314 62.7551 42.1001 62.6049L43.9973 62.1037ZM54.7596 58.192L54.6783 58.4286L54.8314 56.6188C54.8494 56.6463 54.8677 56.6737 54.8864 56.701C55.0589 56.9521 55.2557 57.183 55.4745 57.3944C55.1575 57.5402 54.891 57.8091 54.7596 58.192ZM39.9126 57.1793L40.275 60.4111C40.2547 60.3948 40.2339 60.3789 40.2124 60.3636L37.9418 58.7376L39.7545 57.3237C39.8114 57.2794 39.8642 57.231 39.9126 57.1793ZM49.1165 57.738L49.1165 57.738L49.1176 57.7317C49.2127 57.1798 49.3809 56.9293 49.5058 56.818L49.5134 56.8112L49.5208 56.8044C49.5874 56.7427 49.6278 56.7273 49.6406 56.7233C49.6505 56.7201 49.671 56.7146 49.7181 56.7227C49.7341 56.7257 49.7455 56.7287 49.7533 56.7311C49.7566 56.7376 49.7608 56.747 49.7656 56.76C49.8155 56.8934 49.8608 57.2217 49.7514 57.8566C49.6501 58.4036 49.4833 58.6714 49.3507 58.7986C49.2896 58.8523 49.2516 58.8668 49.2372 58.8711C49.2247 58.8749 49.2005 58.8806 49.1491 58.8717C49.1299 58.8682 49.1166 58.8646 49.108 58.8617C49.1049 58.8555 49.101 58.8467 49.0964 58.8345C49.0475 58.7036 49.0024 58.3761 49.1165 57.738ZM49.7668 56.7365C49.7668 56.7365 49.7661 56.7362 49.7649 56.7354C49.7662 56.736 49.7668 56.7364 49.7668 56.7365ZM49.7472 56.7205C49.7464 56.7194 49.746 56.7188 49.746 56.7188C49.746 56.7188 49.7464 56.7193 49.7472 56.7205ZM49.0948 58.8563C49.0948 58.8563 49.0955 58.8566 49.0968 58.8574C49.0955 58.8568 49.0948 58.8564 49.0948 58.8563ZM49.1138 58.872C49.1146 58.873 49.115 58.8736 49.115 58.8736C49.115 58.8737 49.1146 58.8732 49.1138 58.872Z" fill="#3C6CB8" stroke="url(#paint1_linear_2025_1935)" stroke-width="2.08275"/>
<mask id="mask0_2025_1935" style="mask-type:alpha" maskUnits="userSpaceOnUse" x="32" y="46" width="31" height="17">
<path d="M39.6239 61.7297C39.79 61.5927 39.7812 61.3356 39.6061 61.2103L36.5594 59.0285C36.3814 58.901 36.376 58.6381 36.5487 58.5034L39.1141 56.5026C39.2082 56.4292 39.255 56.3105 39.2363 56.1926L39.054 55.0449C39.0109 54.7736 38.6734 54.6724 38.4881 54.8751L36.5528 56.9933C36.346 57.2196 35.9694 57.0637 35.9832 56.7574L36.4025 47.4278C36.41 47.2602 36.2898 47.114 36.124 47.0889L32.9841 46.6141C32.7777 46.5828 32.595 46.7499 32.6078 46.9583L33.5674 62.6287C33.5789 62.8158 33.7446 62.9553 33.9309 62.9346L35.4393 62.767C35.5996 62.7491 35.7232 62.6173 35.7306 62.4561L35.7809 61.3552C35.7935 61.0792 36.1209 60.9416 36.327 61.1257L38.0511 62.6666C38.1719 62.7746 38.3534 62.7782 38.4783 62.6751L39.6239 61.7297Z" fill="white"/>
<path d="M40.8941 53.9323C40.7291 53.9674 40.6177 54.1219 40.6365 54.2895L41.4246 61.3175C41.4469 61.5164 41.6406 61.6491 41.8341 61.598L43.7313 61.0969C43.8749 61.059 43.975 60.9293 43.9755 60.7809L43.9971 53.6787C43.9978 53.4697 43.8054 53.3135 43.6011 53.3569L40.8941 53.9323ZM43.3951 50.4571C43.3951 50.9303 43.2452 51.3325 42.9456 51.6637C42.6459 51.9949 42.2871 52.1605 41.8691 52.1605C41.4511 52.1605 41.0923 51.9949 40.7926 51.6637C40.4929 51.3325 40.3431 50.9303 40.3431 50.4571C40.3431 49.9918 40.4929 49.5936 40.7926 49.2623C41.0923 48.9311 41.4511 48.7655 41.8691 48.7655C42.2871 48.7655 42.6459 48.9311 42.9456 49.2623C43.2452 49.5936 43.3951 49.9918 43.3951 50.4571Z" fill="white"/>
<path d="M48.9667 59.897C48.1308 59.7471 47.839 58.9664 48.0913 57.5547C48.2096 56.8686 48.4502 56.3639 48.8129 56.0406C49.1363 55.7409 49.499 55.6265 49.9012 55.6975C50.7293 55.8474 51.0211 56.6281 50.7766 58.0397C50.6504 58.7258 50.4099 59.2345 50.055 59.5657C49.7317 59.8575 49.3689 59.9679 48.9667 59.897ZM51.6023 48.103C51.4354 48.1165 51.3055 48.2535 51.3009 48.4209L51.1545 53.8061C51.1488 54.0171 50.948 54.1675 50.7423 54.1198C49.897 53.924 49.1908 53.8466 48.6237 53.8876C47.4171 53.9901 46.4155 54.4515 45.619 55.2717C44.8304 56.0997 44.4794 57.05 44.5662 58.1226C44.6529 59.1872 45.1537 60.0626 46.0685 60.7487C46.9833 61.4348 48.044 61.7305 49.2506 61.6359C49.5163 61.6142 49.7821 61.5701 50.0478 61.5037C50.2197 61.4607 50.3892 61.598 50.3708 61.7742C50.3591 61.8872 50.4266 61.9934 50.534 62.0307L52.8503 62.8343C53.0524 62.9044 53.2665 62.7653 53.2845 62.5522L54.4939 48.2521C54.511 48.0502 54.3427 47.8813 54.1408 47.8977L51.6023 48.103Z" fill="white"/>
<path d="M62.7361 58.4183C62.6178 58.0319 62.3142 57.6415 61.8253 57.2472C61.5256 57.0027 61.0209 56.6596 60.3111 56.218C59.5131 55.7264 59.053 55.3989 58.931 55.2356C58.9094 55.2067 58.9022 55.1704 58.9022 55.1344C58.9022 54.9752 58.9341 54.8671 58.998 54.8103C59.1794 54.6447 59.5698 54.6565 60.1691 54.8458L60.9026 55.1179L61.1475 55.2112C61.2939 55.267 61.4593 55.2114 61.5423 55.0786L61.5768 55.0232L62.6761 53.3178C62.7698 53.1726 62.7346 52.9796 62.5957 52.8767L62.5232 52.823C61.9869 52.4208 61.1037 52.1803 59.8734 52.1014C58.7772 52.0383 57.9216 52.1053 57.3064 52.3025C56.155 52.6653 55.4887 53.3159 55.3073 54.2543C55.2994 54.3253 55.2915 54.3963 55.2836 54.4673C55.2284 55.0351 55.3822 55.5832 55.745 56.1116C56.1077 56.6399 56.6282 57.0737 57.3064 57.4128L57.685 57.6021C59.0884 58.2727 59.8858 58.7675 60.0771 59.0866C60.1157 59.1511 60.0888 59.2505 60.0272 59.2937C59.9168 59.3725 59.7669 59.4435 59.5777 59.5066C59.0966 59.688 58.5051 59.6761 57.8033 59.4711C57.1093 59.2661 56.644 58.9703 56.4074 58.5839L56.3337 58.4644C56.1884 58.2288 55.8344 58.2682 55.7445 58.5301L55.2099 60.0876C55.1746 60.1903 55.1925 60.3039 55.2577 60.3908L55.2954 60.4411C55.8159 61.1351 56.8214 61.5649 58.3119 61.7305C59.8024 61.8961 60.9775 61.7108 61.8371 61.1745C62.3182 60.8749 62.6336 60.4884 62.7834 60.0153C62.9412 59.5342 62.9254 59.0019 62.7361 58.4183Z" fill="white"/>
</mask>
<g mask="url(#mask0_2025_1935)">
<path d="M39.9527 61.4584L36.2028 58.7732L39.2666 56.3836L38.9472 54.3726L35.9426 57.6612L36.4157 47.133L32.583 46.5534L33.5885 62.9726L35.7178 62.736L35.8124 60.6659L38.2611 62.8543L39.9527 61.4584Z" fill="#FF53AA"/>
<path d="M40.6033 53.9941L41.4669 61.695L43.9747 61.0326L43.9984 53.2725L40.6033 53.9941ZM43.3951 50.4571C43.3951 50.9303 43.2452 51.3325 42.9456 51.6637C42.6459 51.9949 42.2871 52.1605 41.8691 52.1605C41.4511 52.1605 41.0923 51.9949 40.7926 51.6637C40.4929 51.3325 40.3431 50.9303 40.3431 50.4571C40.3431 49.9918 40.4929 49.5936 40.7926 49.2623C41.0923 48.9311 41.4511 48.7655 41.8691 48.7655C42.2871 48.7655 42.6459 48.9311 42.9456 49.2623C43.2452 49.5936 43.3951 49.9918 43.3951 50.4571Z" fill="#FF53AA"/>
<path d="M48.9667 59.897C48.1308 59.7471 47.839 58.9664 48.0913 57.5547C48.2096 56.8686 48.4502 56.3639 48.8129 56.0406C49.1363 55.7409 49.499 55.6265 49.9012 55.6975C50.7293 55.8474 51.0211 56.6281 50.7766 58.0397C50.6504 58.7258 50.4099 59.2345 50.055 59.5657C49.7317 59.8575 49.3689 59.9679 48.9667 59.897ZM51.3089 48.1267L51.1433 54.2189C50.1181 53.9507 49.2782 53.8403 48.6237 53.8876C47.4171 53.9901 46.4155 54.4515 45.619 55.2717C44.8304 56.0997 44.4794 57.05 44.5662 58.1225C44.6529 59.1872 45.1537 60.0626 46.0685 60.7487C46.9833 61.4348 48.044 61.7305 49.2506 61.6359C49.637 61.6043 50.0235 61.5255 50.4099 61.3993L50.3508 61.9671L53.249 62.9726L54.5265 47.8665L51.3089 48.1267Z" fill="#FF53AA"/>
<path d="M62.7361 58.4183C62.6178 58.0319 62.3142 57.6415 61.8253 57.2472C61.5256 57.0027 61.0209 56.6596 60.3111 56.218C59.4278 55.6739 58.9586 55.3308 58.9034 55.1889C58.8955 54.9996 58.9271 54.8734 58.998 54.8103C59.1794 54.6447 59.5698 54.6565 60.1691 54.8458L60.9026 55.1179L61.3994 55.3072L61.5768 55.0232L62.8426 53.0596L62.5232 52.823C61.9869 52.4208 61.1037 52.1803 59.8734 52.1014C58.7772 52.0383 57.9216 52.1053 57.3064 52.3025C56.155 52.6653 55.4886 53.3159 55.3073 54.2543C55.2994 54.3253 55.2915 54.3963 55.2836 54.4673C55.2284 55.0351 55.3822 55.5832 55.745 56.1116C56.1077 56.6399 56.6282 57.0737 57.3064 57.4128L57.685 57.6021C59.2859 58.367 60.0982 58.9033 60.1218 59.2109C60.1376 59.2109 60.1061 59.2385 60.0272 59.2937C59.9168 59.3725 59.7669 59.4435 59.5777 59.5066C59.0966 59.688 58.5051 59.6761 57.8033 59.4711C57.1093 59.2661 56.644 58.9703 56.4074 58.5839L55.9697 57.8741L55.1535 60.2518L55.2954 60.4411C55.8159 61.1351 56.8214 61.5649 58.3119 61.7305C59.8024 61.8961 60.9775 61.7108 61.8371 61.1745C62.3182 60.8749 62.6336 60.4884 62.7834 60.0153C62.9412 59.5342 62.9254 59.0019 62.7361 58.4183Z" fill="#FF53AA"/>
<rect x="30.4893" y="44.4288" width="9.27191" height="21.5347" fill="#FBB41E"/>
<rect x="54.7158" y="51.0089" width="10.7674" height="12.861" fill="#37D9D4"/>
<path d="M44.9952 55.0466L49.7807 47.4197L50.977 46.672L55.0148 45.326C55.1643 46.7218 55.3139 49.8424 54.7157 51.1584C53.968 52.8034 54.7157 60.1312 54.7157 60.4303C54.7157 60.6696 55.5133 62.6236 55.9121 63.5708C54.7656 64.3684 52.323 65.9934 51.7248 66.1131C50.977 66.2626 45.2943 63.8699 44.9952 63.5708C44.7559 63.3315 44.4967 59.2838 44.397 57.2898L44.9952 55.0466Z" fill="#FF5A21"/>
</g>
<defs>
<radialGradient id="paint0_radial_2025_1935" cx="0" cy="0" r="1" gradientUnits="userSpaceOnUse" gradientTransform="translate(35.5 35) rotate(90) scale(35)">
<stop stop-color="#4782CD"/>
<stop offset="1" stop-color="#203785"/>
</radialGradient>
<linearGradient id="paint1_linear_2025_1935" x1="31.43" y1="46.3953" x2="58.6975" y2="63.4884" gradientUnits="userSpaceOnUse">
<stop stop-color="#3A68B4"/>
<stop offset="0.425225" stop-color="#3158A5"/>
<stop offset="1" stop-color="#203785"/>
</linearGradient>
</defs>
</svg>
