<svg width="66" height="35" viewBox="0 0 66 35" fill="none" xmlns="http://www.w3.org/2000/svg">
<path d="M16.0486 31.7733L7.88262 26.0492L14.5545 20.9556L13.859 16.6688L7.3159 23.6789L8.34631 1.23657L0 0.000976562L2.18962 35.001L6.82646 34.4967L7.03254 30.0838L12.3649 34.7488L16.0486 31.7733Z" fill="#DE358A"/>
<path d="M17.4654 15.8619L19.3459 32.2776L24.8071 30.8655L24.8586 14.3237L17.4654 15.8619ZM23.5448 8.3223C23.5448 9.33095 23.2185 10.1883 22.5659 10.8943C21.9134 11.6004 21.132 11.9534 20.2218 11.9534C19.3116 11.9534 18.5302 11.6004 17.8776 10.8943C17.225 10.1883 16.8987 9.33095 16.8987 8.3223C16.8987 7.33047 17.225 6.48152 17.8776 5.77547C18.5302 5.06942 19.3116 4.71639 20.2218 4.71639C21.132 4.71639 21.9134 5.06942 22.5659 5.77547C23.2185 6.48152 23.5448 7.33047 23.5448 8.3223Z" fill="#DE358A"/>
<path d="M35.6779 28.4448C33.8575 28.1254 33.2221 26.4611 33.7716 23.452C34.0292 21.9894 34.553 20.9136 35.343 20.2243C36.0471 19.5855 36.8371 19.3418 37.7129 19.493C39.5162 19.8125 40.1516 21.4767 39.6192 24.4858C39.3444 25.9484 38.8206 27.0327 38.0478 27.7387C37.3437 28.3607 36.5537 28.5961 35.6779 28.4448ZM40.7784 3.35472L40.4178 16.341C38.1852 15.7695 36.3562 15.5341 34.9308 15.635C32.3033 15.8535 30.1223 16.837 28.3878 18.5853C26.6704 20.3504 25.9062 22.3761 26.0951 24.6624C26.284 26.9318 27.3745 28.7978 29.3666 30.2603C31.3588 31.7229 33.6686 32.3533 36.2961 32.1516C37.1376 32.0843 37.9791 31.9162 38.8206 31.6472L38.6918 32.8576L45.0031 35.001L47.7852 2.79997L40.7784 3.35472Z" fill="#DE358A"/>
<path d="M65.6628 25.2928C65.4052 24.469 64.744 23.6369 63.6792 22.7964C63.0266 22.2752 61.9275 21.544 60.3819 20.6026C58.4585 19.4426 57.4367 18.7113 57.3165 18.4088C57.2993 18.0053 57.368 17.7363 57.5225 17.6018C57.9175 17.2488 58.7676 17.274 60.0728 17.6775L61.6699 18.2575L62.7519 18.6609L63.1383 18.0557L65.8946 13.8699L65.1991 13.3655C64.0313 12.5082 62.1079 11.9955 59.4288 11.8273C57.0417 11.6929 55.1784 11.8357 53.8388 12.256C51.3315 13.0293 49.8804 14.4162 49.4854 16.4167C49.4682 16.568 49.451 16.7193 49.4338 16.8706C49.3136 18.0809 49.6485 19.2493 50.4385 20.3756C51.2285 21.5019 52.3619 22.4265 53.8388 23.1494L54.6632 23.5528C58.1494 25.1835 59.9182 26.3266 59.9698 26.9822C60.0041 26.9822 59.9354 27.0411 59.7637 27.1588C59.5233 27.3269 59.197 27.4782 58.7848 27.6126C57.7372 27.9993 56.4492 27.9741 54.9208 27.537C53.4095 27.0999 52.3963 26.4695 51.8811 25.6458L50.9279 24.1328L49.1505 29.2013L49.4596 29.6047C50.5931 31.0841 52.7827 32.0003 56.0285 32.3533C59.2742 32.7063 61.8331 32.3113 63.705 31.1681C64.7526 30.5293 65.4395 29.7056 65.7658 28.6969C66.1093 27.6715 66.0749 26.5368 65.6628 25.2928Z" fill="#DE358A"/>
</svg>
