<svg width="147" height="149" viewBox="0 0 147 149" fill="none" xmlns="http://www.w3.org/2000/svg">
<ellipse cx="71.4355" cy="143.977" rx="15.0166" ry="4.69269" fill="#213987" fill-opacity="0.3"/>
<path d="M108.397 34.1697C128.697 54.4701 128.696 90.147 108.396 110.447L76.2141 142.63C71.4304 147.413 67.7607 143.327 62.977 138.543L38.5836 110.447C18.2831 90.147 18.2831 57.2857 38.5836 36.9853C58.884 16.6848 88.0963 13.8693 108.397 34.1697Z" fill="#213987"/>
<circle cx="73.9696" cy="71.203" r="45.7938" fill="#26325E"/>
<circle cx="74" cy="71.1709" r="51" fill="url(#paint0_radial_72_1016)"/>
<path d="M59.9194 82.2681C59.4513 81.0409 59.2676 79.8636 59.3314 78.6574C59.4554 76.3154 60.0151 74.0929 61.301 72.1051C62.7261 69.9016 64.7471 68.516 67.304 67.9459C68.0282 67.7844 68.783 67.6725 69.5214 67.6847C70.5215 67.7014 71.4014 68.0748 71.9398 69.0017C72.3405 69.692 72.4504 70.4476 72.3782 71.2265C72.1517 73.6695 70.6709 75.3014 68.8048 76.6668C67.8841 77.3404 66.8612 77.8325 65.7766 78.1795C65.4769 78.2754 65.3189 78.4109 65.3688 78.7151C65.4442 79.1756 65.4908 79.652 65.651 80.0841C65.8143 80.5245 66.1654 80.763 66.6947 80.7789C67.7353 80.81 68.6716 80.4949 69.587 80.059C71.023 79.3755 72.0385 78.2273 72.9723 76.991C73.3022 76.5541 73.2586 76.0155 73.3123 75.5155C73.4989 73.7755 73.653 72.0319 73.8181 70.2896C73.9127 69.2905 74.0241 68.2927 74.0871 67.2916C74.1097 66.9339 74.2142 66.7423 74.5739 66.6699C76.2481 66.3332 77.9193 65.9829 79.5925 65.6417C79.6922 65.6214 79.7998 65.6391 79.9838 65.6391C79.9496 66.0856 79.9243 66.501 79.8848 66.9152C79.8097 67.7011 79.7269 68.4863 79.6461 69.2718C79.4325 71.3523 79.2125 73.432 79.008 75.5133C78.9538 76.0658 78.9278 76.6227 78.9222 77.1779C78.9161 77.7707 79.2062 77.9552 79.8 77.8054C80.9004 77.5277 81.5879 76.7554 82.1478 75.8446C82.87 74.6698 83.371 73.3994 83.6211 72.0431C83.8104 71.0159 83.9524 69.9796 84.0992 68.945C84.1344 68.6972 84.1045 68.44 84.1045 68.1304C83.8785 68.154 83.7061 68.1368 83.5616 68.1925C82.3746 68.6489 81.1113 67.1913 81.4732 65.9267C81.6773 65.2144 82.1689 64.764 82.8285 64.4876C83.4639 64.2216 84.1215 64.0431 84.8196 64.1922C85.9329 64.4299 86.4539 65.2316 86.6761 66.2527C87.1492 68.4246 86.9654 70.582 86.4855 72.7334C86.0526 74.6736 85.3408 76.4833 84.1592 78.0967C82.5913 80.2374 80.5063 81.5082 77.8846 81.9443C76.9905 82.0929 76.1357 82.0344 75.2923 81.7605C74.5061 81.5051 73.9421 80.967 73.5591 80.2377C73.491 80.1078 73.4242 79.9775 73.3252 79.7869C73.0976 80.0352 72.8906 80.2395 72.7081 80.4638C71.6778 81.7304 70.3577 82.6088 68.9592 83.4246C66.8557 84.6518 64.5307 85.1474 62.2041 85.655C60.9332 85.9321 59.65 86.1645 58.3634 86.3554C57.3301 86.5085 56.2847 86.6207 55.2415 86.6515C54.5325 86.6726 54.0794 86.8948 53.6625 87.4988C52.7299 88.8507 51.7286 90.1597 50.6912 91.4342C49.4562 92.9517 47.9167 94.0878 46.0901 94.8221C39.6395 97.5106 32.3914 95.4048 33.4522 88.8305C34.3648 85.0345 36.765 82.5928 40.3888 81.3171C42.6624 80.5167 45.0234 80.3676 47.4134 80.5906C47.5838 80.6065 47.7552 80.6134 47.926 80.6189C48.672 80.6442 48.7153 80.6126 48.7672 79.8555C48.7905 79.5145 48.7821 79.1705 48.7707 78.8285C48.7403 77.9314 48.7004 77.0348 48.6647 76.138C48.5745 73.874 48.4953 71.6092 48.3895 69.346C48.3518 68.5362 48.2624 67.728 48.1741 66.9215C48.1156 66.3876 48.0979 66.3854 47.5344 66.3813C46.6571 66.375 45.7749 66.4312 44.9029 66.3613C42.9079 66.2018 41.2439 65.4323 40.3766 63.5019C39.7798 62.1735 39.9316 60.8332 40.5617 59.5392C40.608 59.444 40.6758 59.3582 40.7414 59.2739C41.2031 58.6793 41.7484 58.5573 42.3538 58.9899C42.9087 59.3863 43.4092 59.8584 43.9422 60.2864C44.6938 60.8899 45.5096 61.3177 46.5201 61.2427C47.2886 61.1858 47.5043 61.0301 47.6124 60.2786C47.8071 58.9263 47.9422 57.5647 48.166 56.2178C48.6082 53.5567 49.3241 50.994 51.1545 48.8978C52.4718 47.3891 54.1136 46.4148 56.1194 46.245C57.8138 46.1017 59.24 46.7993 60.231 48.1708C62.1036 50.7624 62.2611 53.5346 60.8863 56.4031C60.2609 57.708 59.2858 58.7712 58.411 59.9017C57.6134 60.9324 56.7742 61.9313 55.9933 62.9742C55.5326 63.5893 55.1225 64.2654 55.0633 65.0534C55.0205 65.6219 55.0803 66.2018 55.1334 66.7731C55.284 68.3881 55.4341 70.0036 55.6237 71.6143C55.7764 72.9108 55.9189 74.2051 55.8475 75.5123C55.7835 76.685 55.7156 77.8575 55.6296 79.0288C55.5622 79.9438 55.4653 80.8569 55.3797 81.7704C55.359 81.9922 55.42 82.1461 55.668 82.1815C55.7946 82.1995 55.9179 82.2638 56.0429 82.2645C57.3015 82.2703 58.5601 82.2681 59.9194 82.2681ZM47.8759 85.9734C46.4609 85.6772 45.0626 85.518 43.6592 85.6998C42.9943 85.7858 42.3478 86.043 41.7051 86.2594C41.3023 86.3951 40.9252 86.6042 40.5323 86.771C39.5813 87.175 38.9262 87.8972 38.469 88.7877C37.8471 89.9987 38.544 91.3066 39.8775 91.5673C41.2456 91.8347 42.5255 91.5547 43.7058 90.9011C45.5995 89.8529 46.8991 88.2392 47.8106 86.2982C47.8529 86.2088 47.8519 86.0997 47.8759 85.9734ZM54.2918 57.3529C54.6327 56.9041 54.9367 56.5239 55.2192 56.1285C55.9928 55.0458 56.6816 53.9143 57.0398 52.6188C57.2499 51.8589 57.2473 51.099 56.8793 50.373C56.636 49.8934 56.2831 49.7883 55.8338 50.0991C55.6463 50.229 55.4665 50.4064 55.3549 50.6029C55.1453 50.9725 54.9216 51.3554 54.8218 51.7617C54.5834 52.733 54.3659 53.7146 54.231 54.7044C54.1169 55.5425 53.9632 56.4001 54.2918 57.3529ZM65.4159 75.8651C65.4667 75.8881 65.4862 75.9056 65.5024 75.9028C65.5645 75.8922 65.63 75.8854 65.686 75.8593C66.9293 75.2756 67.8416 74.3451 68.4507 73.1285C68.8531 72.3243 68.9557 71.4576 68.7537 70.5759C68.6506 70.1266 68.4772 70.056 68.0608 70.235C67.6146 70.4268 67.2954 70.765 67.0293 71.1614C66.0705 72.5896 65.6905 74.2117 65.4159 75.8651Z" fill="white"/>
<path d="M103.668 60.7051C103.668 60.9891 103.668 61.1769 103.668 61.4366C103.822 61.3374 103.941 61.2754 104.044 61.1924C105.204 60.2555 106.569 59.7774 108.017 59.7475C110.155 59.7037 111.51 60.6899 111.735 63.0271C111.875 64.482 111.648 65.9267 111.435 67.3662C111.313 68.1899 111.143 69.0194 111.148 69.8454C111.154 71.0394 111.389 71.3634 112.604 71.0136C113.039 70.8883 113.43 70.6066 113.834 70.3995C114.218 72.201 113.183 74.0696 111.435 74.8419C110.605 75.2085 109.74 75.3991 108.818 75.3674C106.93 75.3024 105.844 73.8831 105.716 72.3605C105.612 71.1265 105.685 69.8874 105.878 68.6519C106.048 67.5576 106.114 66.4456 106.194 65.3391C106.215 65.0496 106.144 64.743 106.065 64.4583C105.88 63.789 105.507 63.6272 104.856 63.9021C104.27 64.1494 103.921 64.6198 103.637 65.1655C103.17 66.0641 103.11 67.0468 103.01 68.0234C102.801 70.0831 102.588 72.1423 102.385 74.2025C102.323 74.8402 102.296 75.4811 102.238 76.1192C102.187 76.6863 102.1 76.7705 101.561 76.8829C99.9546 77.2186 98.3482 77.5573 96.7406 77.8901C96.6411 77.9106 96.5338 77.8929 96.3498 77.8929C96.3746 77.5869 96.3976 77.3047 96.4272 76.9394C96.2141 77.0799 96.0526 77.168 95.9118 77.2816C94.6467 78.305 93.1922 78.9128 91.5878 79.0624C89.7595 79.2328 88.148 78.4394 87.698 76.265C87.5 75.3087 87.5266 74.3605 87.6793 73.4004C87.8868 72.0945 88.0559 70.7825 88.2354 69.4723C88.2769 69.169 88.3781 68.9736 88.7259 68.9058C89.8777 68.6812 91.0218 68.419 92.1703 68.1775C92.7922 68.0466 93.4167 67.9279 94.1111 67.7897C94.1111 68.0803 94.1379 68.3112 94.1068 68.5339C93.9121 69.9289 93.6979 71.3211 93.5048 72.7161C93.4377 73.2006 93.3765 73.6907 93.3767 74.1785C93.3772 74.7533 93.5628 74.9002 94.1343 74.8465C95.0013 74.7652 95.6453 74.2962 96.1596 73.6254C96.6426 72.9959 96.8745 72.2658 96.9563 71.4897C97.1309 69.834 97.2972 68.1773 97.4499 66.5195C97.5612 65.308 97.643 64.0937 97.743 62.8812C97.7604 62.6691 97.8194 62.46 97.8316 62.2482C97.8498 61.9221 98.0584 61.8219 98.3318 61.7665C99.9009 61.4483 101.469 61.1258 103.038 60.8071C103.223 60.7699 103.411 60.7466 103.668 60.7051Z" fill="white"/>
<path d="M87.1924 54.9288C87.0053 54.7934 86.7466 54.6815 86.7557 54.5987C86.7841 54.3423 86.8446 54.0069 87.022 53.8705C87.2425 53.7011 87.3169 53.5477 87.3281 53.2991C87.3374 53.087 87.4167 52.8756 87.4108 52.6653C87.3969 52.1765 87.6341 51.9479 88.0923 51.8277C88.7061 51.6667 89.3043 51.4452 90.0039 51.2192C89.9328 51.9277 89.8708 52.5489 89.805 53.204C90.0928 53.1637 90.3175 53.1321 90.5393 53.1012C90.6891 53.7292 90.6284 53.9021 90.112 54.0841C89.8133 54.1894 89.7209 54.3965 89.6926 54.662C89.6267 55.2776 89.5723 55.8945 89.5151 56.5111C89.4756 56.9361 89.4247 57.3609 89.4055 57.7872C89.3837 58.2696 89.6065 58.4045 90.0383 58.1871C90.4241 57.9927 90.58 57.6829 90.5535 57.2449C90.4839 56.1028 90.7608 55.0364 91.3541 54.0621C92.0895 52.8551 93.2227 52.2623 94.5901 52.1413C95.2703 52.0811 95.8406 52.3808 96.1563 53.0392C96.2477 53.2295 96.334 53.4222 96.4195 53.6069C97.2012 53.488 97.2814 53.4011 97.3508 52.7217C97.3855 52.3823 97.3959 52.0226 97.5209 51.7143C97.6791 51.3242 98.1299 51.5082 98.4382 51.3936C98.8141 51.2538 99.224 51.1926 99.6247 51.1412C99.7459 51.1255 99.8859 51.2548 100.061 51.3386C100.36 51.1873 100.728 50.9756 101.116 50.8104C101.608 50.6003 102.044 50.761 102.401 51.1232C102.658 51.3847 102.693 51.9193 102.514 52.2717C102.333 52.6301 101.654 53.0827 101.304 52.9787C101.024 52.8956 100.793 52.6504 100.496 52.4466C99.9383 52.6119 99.834 52.7448 99.7781 53.371C99.6601 54.6896 99.532 56.0071 99.4131 57.3257C99.3931 57.5474 99.3774 57.7783 99.1187 57.8363C98.3975 57.9973 97.6723 58.1387 96.8623 58.3058C96.9764 56.9898 97.0822 55.7684 97.1883 54.5428C96.5089 54.6235 96.4871 54.6493 96.4583 55.3194C96.396 56.766 95.8014 57.9378 94.5453 58.6767C93.4554 59.3176 92.3006 59.4657 91.0225 58.6921C90.9605 58.789 90.8901 58.949 90.7762 59.0667C90.3548 59.5021 89.8708 59.8373 89.2789 60.0193C88.214 60.3466 87.7214 60.2187 86.9868 59.3434C86.8074 59.5236 86.6327 59.7026 86.454 59.8773C85.4708 60.8379 84.3019 61.3158 82.9183 61.2442C82.1257 61.2032 81.4802 60.6918 81.3147 59.916C81.1992 59.3748 81.0755 58.8257 81.2522 58.2678C81.2754 58.1944 81.2554 58.1074 81.2554 58.0238C80.758 57.9773 80.7866 58.3013 80.7808 58.604C80.7639 59.5062 80.5011 60.3321 79.9637 61.0561C79.0676 62.2635 77.8549 62.7379 76.3756 62.5384C75.3914 62.4055 74.9841 61.7385 74.9024 60.9913C74.7148 59.2783 75.0925 57.7044 76.4528 56.5142C77.259 55.8087 78.2123 55.4743 79.2957 55.5816C79.9136 55.6429 80.3037 56.0008 80.53 56.5607C80.593 56.7169 80.6565 56.8728 80.7185 57.0257C81.2846 56.9349 81.6612 56.6716 81.9343 56.1699C82.534 55.0688 83.5101 54.437 84.7314 54.2327C85.1352 54.1651 85.5837 54.218 85.9847 54.321C86.4046 54.4291 86.6932 54.9931 86.6704 55.4495C86.6471 55.9163 86.35 56.2901 85.8857 56.4364C85.3526 56.6045 85.1167 56.4137 85.122 55.8616C85.1235 55.694 85.0187 55.5254 84.9628 55.3573C84.7869 55.4535 84.534 55.5064 84.45 55.6548C84.2416 56.0226 84.0584 56.4218 83.9591 56.8311C83.7784 57.576 83.621 58.3359 83.85 59.1062C83.9705 59.5115 84.0804 59.5981 84.4895 59.555C85.5556 59.4431 86.2829 58.8194 86.8471 57.9623C86.8922 57.894 86.9185 57.8046 86.9271 57.7224C87.0185 56.8521 87.1053 55.9813 87.1911 55.1103C87.1995 55.0273 87.1924 54.9432 87.1924 54.9288ZM93.0959 56.2977C93.1146 56.4952 93.1114 56.7336 93.164 56.9592C93.3047 57.5619 93.7391 57.6917 94.1677 57.2325C94.3773 57.0078 94.5097 56.6984 94.6312 56.4081C94.7286 56.1752 94.7433 55.9092 94.8197 55.6657C94.9101 55.3781 94.9071 55.144 94.6567 54.9179C94.3504 54.6415 94.3373 54.2863 94.5086 53.9206C94.5537 53.8244 94.6241 53.729 94.6306 53.6295C94.637 53.5371 94.5955 53.4199 94.5329 53.3531C94.496 53.3136 94.3466 53.3171 94.3003 53.3591C94.0829 53.5563 93.8176 53.7403 93.6903 53.9904C93.3303 54.6974 93.1443 55.4632 93.0959 56.2977ZM77.4478 59.6808C77.4478 59.8732 77.4063 60.078 77.4587 60.2549C77.5205 60.4627 77.6235 60.7513 77.7825 60.8123C77.9541 60.8784 78.2255 60.7503 78.4259 60.6518C78.5454 60.5931 78.654 60.4407 78.6963 60.3081C78.8634 59.7816 79.0086 59.248 79.1453 58.7126C79.1671 58.6275 79.1355 58.4817 79.0735 58.4304C78.6034 58.0413 78.6259 57.6031 78.8937 57.1151C78.934 57.0417 78.9314 56.8863 78.8816 56.8371C78.8218 56.7784 78.65 56.743 78.596 56.7855C78.3847 56.9521 78.1417 57.1209 78.0171 57.3475C77.621 58.0681 77.4175 58.85 77.4478 59.6808Z" fill="white"/>
<path d="M67.9486 56.3819C66.7746 57.3213 66.5713 58.283 67.1601 59.8635C66.5685 59.9939 65.9663 60.1331 65.457 59.7678C64.9652 59.4152 64.8966 58.8325 65.0232 58.2546C65.1591 57.6334 65.4682 57.0907 65.9134 56.6482C67.5375 55.034 69.4882 54.1491 71.7932 54.3247C73.3456 54.443 74.2237 55.254 74.5976 56.8799C75.0502 58.8472 74.6429 60.7125 73.5631 62.3951C72.929 63.3828 72.0243 64.0627 70.7665 64.0571C70.4718 64.0559 70.1777 63.9756 69.8676 63.9296C69.1391 64.5753 68.1628 64.4487 67.2211 64.7348C67.0837 63.7473 67.4026 62.8621 67.4315 61.9605C67.4606 61.0459 67.5922 60.1349 67.679 59.2221C67.7651 58.3126 67.8514 57.4036 67.9486 56.3819ZM70.4093 55.4876C70.4493 55.6071 70.4903 55.6679 70.4852 55.7246C70.3908 56.7872 70.2924 57.8496 70.1921 58.9117C70.0899 59.9956 69.9747 61.0783 69.8856 62.1632C69.8441 62.6705 70.0124 62.789 70.4941 62.6262C71.0576 62.4356 71.4031 62.0113 71.6588 61.4977C71.9582 60.896 72.0463 60.2399 72.1848 59.5919C72.4063 58.5553 72.2683 57.5464 72.0255 56.546C71.8463 55.8068 71.2613 55.3317 70.5425 55.3603C69.8 55.3897 69.1049 55.6357 68.488 56.0916C69.1259 55.8914 69.7636 55.6906 70.4093 55.4876Z" fill="white"/>
<path d="M94.6585 64.8185C94.6916 65.627 94.3509 66.2983 93.7667 66.7972C92.7086 67.7006 91.5196 68.1213 90.0953 67.6913C88.8081 67.3027 87.8219 65.8627 88.4995 64.3375C89.3493 62.4249 92.1626 61.5351 93.8561 63.0159C94.3841 63.4779 94.6638 64.0738 94.6585 64.8185Z" fill="white"/>
<path d="M108.276 100.535L108.126 100.632L108.276 100.535ZM108.276 100.535L108.677 100.528L108.689 100.528L109.052 100.522M108.276 100.535L108.677 100.528L108.689 100.528L109.052 100.522C109.031 100.575 108.986 100.664 108.892 100.75C108.891 100.752 108.89 100.753 108.888 100.754C108.886 100.756 108.884 100.757 108.882 100.759C108.818 100.815 108.765 100.833 108.747 100.838M109.052 100.522L110.679 101.391L110.671 101.388L110.604 101.363L110.6 101.362L109.633 101.003C109.249 100.883 108.991 100.84 108.836 100.835C108.786 100.833 108.758 100.836 108.747 100.838M109.052 100.522C109.058 100.506 109.062 100.494 109.064 100.485C109.065 100.483 109.065 100.482 109.066 100.48C109.059 100.399 109.035 100.256 108.936 100.105C108.918 100.076 108.904 100.061 108.904 100.061C108.905 100.061 108.922 100.08 108.969 100.121C109.042 100.184 109.152 100.271 109.308 100.383C109.428 100.469 109.569 100.565 109.73 100.672L109.052 100.522ZM108.747 100.838C108.742 100.838 108.74 100.839 108.74 100.839C108.74 100.839 108.742 100.839 108.747 100.838ZM80.5061 99.2291L81.467 99.1214L80.5061 99.2291L81.6943 109.826C81.7808 110.597 82.5322 111.111 83.2826 110.913L86.3698 110.098C86.9264 109.951 87.3148 109.448 87.3165 108.872L87.3194 107.943C87.7163 108.504 88.218 109.012 88.8196 109.463C90.3524 110.613 92.1345 111.101 94.1122 110.946L94.1153 110.946C94.359 110.926 94.6021 110.895 94.8445 110.853C94.9912 111.129 95.2386 111.349 95.5507 111.458L99.1756 112.715C99.9594 112.987 100.789 112.448 100.859 111.621L101.846 99.9588C101.866 100.85 102.165 101.697 102.703 102.48C103.089 103.043 103.571 103.534 104.139 103.957C103.56 103.854 102.925 104.151 102.704 104.796L101.776 107.499C101.639 107.897 101.708 108.338 101.961 108.675L102.071 108.821C103.074 110.158 104.878 110.831 107.133 111.081C109.421 111.335 111.381 111.071 112.888 110.131C113.754 109.592 114.378 108.855 114.676 107.917C114.98 106.987 114.932 106.002 114.609 105.003C114.356 104.183 113.751 103.467 112.969 102.836C112.56 102.503 111.944 102.078 111.144 101.568L111.161 101.575C111.729 101.791 112.37 101.576 112.692 101.061L112.814 100.865L114.5 98.249L113.687 97.7251L114.5 98.249C114.863 97.6857 114.727 96.9373 114.188 96.5384L113.957 96.367C113.956 96.3664 113.955 96.3658 113.955 96.3652C112.942 95.6071 111.421 95.2423 109.577 95.1241L109.571 95.1237C107.928 95.0291 106.544 95.1208 105.482 95.4605C103.603 96.0532 102.306 97.1934 101.931 98.954L102.658 90.3578C102.724 89.575 102.071 88.92 101.288 88.9833L97.2303 89.3115C96.5832 89.3639 96.0794 89.8953 96.0618 90.5443L95.8601 97.9654C94.808 97.7555 93.8674 97.6686 93.0533 97.7274L93.0533 97.7273L93.0412 97.7284C91.0657 97.8962 89.3842 98.6622 88.0511 100.035L88.0511 100.035L88.0446 100.042C87.7823 100.317 87.5475 100.603 87.3409 100.898L87.3492 98.1757C87.3516 97.3655 86.6059 96.7597 85.8134 96.9281L81.5053 97.8438L81.7063 98.7896L81.5053 97.8438C80.8654 97.9798 80.4332 98.5791 80.5061 99.2291ZM104.988 104.541C104.977 104.522 104.965 104.504 104.952 104.486C105.079 104.558 105.209 104.627 105.343 104.693L105.894 104.969L105.902 104.973L105.91 104.977C106.818 105.411 107.529 105.784 108.055 106.098C107.704 106.106 107.281 106.049 106.772 105.9C105.861 105.631 105.453 105.297 105.29 105.03L105.288 105.027L104.988 104.541L104.165 105.049L104.988 104.541ZM109.756 100.69L109.946 100.088L109.756 100.69ZM80.4153 102L79.4603 102.152L80.4153 102L80.0772 99.8712C79.9102 98.8193 78.6013 98.4267 77.8829 99.213L75.7307 101.569L76.288 89.1667C76.3173 88.5168 75.8512 87.9497 75.208 87.8524L70.2666 87.1051C69.4661 86.984 68.7579 87.6319 68.8074 88.44L70.2299 111.67C70.2744 112.395 70.917 112.936 71.6394 112.856L74.1655 112.575C74.7874 112.506 75.2666 111.995 75.2952 111.369L75.3283 110.646L77.184 112.304C77.6523 112.723 78.356 112.737 78.8405 112.337L80.7984 110.721C81.4423 110.19 81.4081 109.193 80.7294 108.707L76.6388 105.778L79.9415 103.202L79.3469 102.439L79.9416 103.202C80.3065 102.917 80.4879 102.457 80.4153 102ZM93.2993 104.206L93.3003 104.2C93.4512 103.325 93.7345 102.825 94.0422 102.551L94.0493 102.545L94.0562 102.538C94.3251 102.289 94.5537 102.236 94.8146 102.281C95.0849 102.33 95.2111 102.44 95.3027 102.685C95.426 103.015 95.4745 103.609 95.3082 104.572C95.147 105.445 94.8641 105.961 94.555 106.253C94.2912 106.489 94.0606 106.543 93.7926 106.496C93.5125 106.446 93.3864 106.334 93.2963 106.093C93.1737 105.765 93.1266 105.171 93.2993 104.206ZM85.5663 96.1001C86.174 95.4284 86.4712 94.6068 86.4712 93.6931C86.4712 92.7864 86.171 91.9718 85.5663 91.3034C84.9605 90.6338 84.1834 90.2612 83.2806 90.2612C82.3779 90.2612 81.6008 90.6338 80.995 91.3034C80.3903 91.9718 80.0901 92.7864 80.0901 93.6931C80.0901 94.6068 80.3873 95.4284 80.995 96.1001C81.6008 96.7697 82.3779 97.1423 83.2806 97.1423C84.1834 97.1423 84.9605 96.7697 85.5663 96.1001Z" fill="#3C6CB8" stroke="url(#paint1_linear_72_1016)" stroke-width="1.93398"/>
<mask id="mask0_72_1016" style="mask-type:alpha" maskUnits="userSpaceOnUse" x="69" y="88" width="45" height="24">
<path d="M80.1829 109.976C80.3371 109.848 80.3289 109.61 80.1664 109.493L75.3552 106.048C75.1899 105.93 75.1849 105.685 75.3452 105.56L79.3469 102.439C79.4342 102.371 79.4777 102.261 79.4603 102.152L79.1222 100.023C79.0822 99.7709 78.7688 99.6769 78.5967 99.8652L75.2115 103.57C75.0195 103.78 74.6698 103.636 74.6826 103.351L75.322 89.1232C75.329 88.9676 75.2174 88.8318 75.0634 88.8085L70.122 88.0612C69.9303 88.0322 69.7607 88.1874 69.7725 88.3809L71.1951 111.611C71.2058 111.784 71.3596 111.914 71.5326 111.895L74.0587 111.614C74.2076 111.597 74.3224 111.475 74.3292 111.325L74.426 109.209C74.4377 108.953 74.7417 108.825 74.933 108.996L77.8283 111.583C77.9405 111.684 78.109 111.687 78.225 111.591L80.1829 109.976Z" fill="white"/>
<path d="M81.7063 98.7896C81.5531 98.8222 81.4496 98.9657 81.467 99.1214L82.6553 109.718C82.676 109.903 82.8559 110.026 83.0356 109.978L86.1229 109.163C86.2561 109.128 86.3491 109.007 86.3496 108.869L86.3822 98.1727C86.3828 97.9787 86.2042 97.8336 86.0144 97.874L81.7063 98.7896ZM85.5042 93.6931C85.5042 94.3826 85.2859 94.9687 84.8492 95.4513C84.4125 95.934 83.8897 96.1753 83.2806 96.1753C82.6716 96.1753 82.1487 95.934 81.7121 95.4513C81.2754 94.9687 81.0571 94.3826 81.0571 93.6931C81.0571 93.0151 81.2754 92.4348 81.7121 91.9522C82.1487 91.4695 82.6716 91.2282 83.2806 91.2282C83.8897 91.2282 84.4125 91.4695 84.8492 91.9522C85.2859 92.4348 85.5042 93.0151 85.5042 93.6931Z" fill="white"/>
<path d="M93.6229 107.448C92.4048 107.23 91.9796 106.092 92.3474 104.035C92.5197 103.036 92.8702 102.3 93.3988 101.829C93.87 101.392 94.3986 101.226 94.9846 101.329C96.1912 101.548 96.6164 102.685 96.2602 104.742C96.0763 105.742 95.7258 106.483 95.2087 106.966C94.7376 107.391 94.209 107.552 93.6229 107.448ZM97.3082 90.2754C97.1533 90.2879 97.0327 90.4152 97.0284 90.5706L96.805 98.7912C96.7996 98.9872 96.613 99.1269 96.4226 99.0806C95.0963 98.7583 93.9964 98.6288 93.123 98.6919C91.3648 98.8413 89.9054 99.5135 88.7448 100.709C87.5957 101.915 87.0843 103.3 87.2107 104.863C87.3371 106.414 88.0668 107.69 89.3998 108.689C90.7328 109.689 92.2784 110.12 94.0366 109.982C94.4497 109.948 94.8627 109.878 95.2758 109.77C95.4891 109.714 95.7001 109.885 95.6772 110.104L95.6647 110.225C95.65 110.365 95.7341 110.498 95.8677 110.544L99.4926 111.802C99.6803 111.867 99.879 111.738 99.8958 111.54L101.694 90.2763C101.71 90.0888 101.554 89.932 101.366 89.9472L97.3082 90.2754Z" fill="white"/>
<path d="M113.687 105.294C113.515 104.731 113.072 104.162 112.36 103.587C111.923 103.231 111.188 102.731 110.153 102.088C108.951 101.347 108.275 100.862 108.126 100.632C108.107 100.604 108.101 100.571 108.101 100.537C108.097 100.29 108.143 100.123 108.24 100.036C108.504 99.7951 109.073 99.8123 109.946 100.088L111.015 100.485L111.505 100.671C111.641 100.723 111.795 100.671 111.872 100.548L111.998 100.347L113.687 97.7251C113.774 97.5902 113.742 97.411 113.613 97.3155L113.377 97.1406C112.595 96.5545 111.308 96.204 109.516 96.0891C107.918 95.9972 106.671 96.0948 105.775 96.3821C104.097 96.9107 103.126 97.8588 102.862 99.2262C102.851 99.3297 102.839 99.4331 102.828 99.5365C102.747 100.364 102.971 101.163 103.5 101.932C104.028 102.702 104.787 103.334 105.775 103.829L106.327 104.104C108.372 105.082 109.534 105.803 109.812 106.268C109.869 106.362 109.829 106.506 109.74 106.569C109.579 106.684 109.36 106.788 109.085 106.88C108.384 107.144 107.522 107.127 106.499 106.828C105.488 106.529 104.81 106.098 104.465 105.535L104.165 105.049C104.03 104.83 103.702 104.867 103.618 105.11L102.69 107.813C102.658 107.908 102.674 108.014 102.735 108.094L102.845 108.241C103.603 109.252 105.068 109.879 107.24 110.12C109.412 110.361 111.124 110.091 112.377 109.31C113.078 108.873 113.538 108.31 113.756 107.621C113.986 106.92 113.963 106.144 113.687 105.294Z" fill="white"/>
</mask>
<g mask="url(#mask0_72_1016)">
<path d="M80.4882 109.724L75.0241 105.811L79.4885 102.329L79.0231 99.3986L74.6449 104.191L75.3343 88.8495L69.7495 88.0049L71.2147 111.93L74.3173 111.585L74.4552 108.569L78.0233 111.758L80.4882 109.724Z" fill="#FF53AA"/>
<path d="M81.4363 98.847L82.6946 110.068L86.3489 109.103L86.3833 97.7956L81.4363 98.847ZM85.5042 93.6931C85.5042 94.3826 85.2859 94.9687 84.8492 95.4513C84.4125 95.934 83.8897 96.1753 83.2806 96.1753C82.6716 96.1753 82.1487 95.934 81.7121 95.4513C81.2754 94.9687 81.0571 94.3826 81.0571 93.6931C81.0571 93.0151 81.2754 92.4348 81.7121 91.9522C82.1487 91.4695 82.6716 91.2282 83.2806 91.2282C83.8897 91.2282 84.4125 91.4695 84.8492 91.9522C85.2859 92.4348 85.5042 93.0151 85.5042 93.6931Z" fill="#FF53AA"/>
<path d="M93.6229 107.448C92.4048 107.23 91.9796 106.092 92.3474 104.035C92.5197 103.036 92.8702 102.3 93.3988 101.829C93.87 101.392 94.3986 101.226 94.9846 101.329C96.1912 101.548 96.6164 102.685 96.2602 104.742C96.0763 105.742 95.7258 106.483 95.2087 106.966C94.7376 107.391 94.209 107.552 93.6229 107.448ZM97.0359 90.2974L96.7945 99.1745C95.3007 98.7838 94.0768 98.6229 93.123 98.6919C91.3649 98.8413 89.9054 99.5135 88.7448 100.709C87.5957 101.915 87.0843 103.3 87.2107 104.863C87.3371 106.414 88.0668 107.69 89.3998 108.689C90.7328 109.689 92.2784 110.12 94.0366 109.982C94.5997 109.936 95.1628 109.821 95.7258 109.637L95.6397 110.465L99.8627 111.93L101.724 89.9182L97.0359 90.2974Z" fill="#FF53AA"/>
<path d="M113.687 105.294C113.515 104.731 113.072 104.162 112.36 103.587C111.923 103.231 111.188 102.731 110.153 102.088C108.866 101.295 108.183 100.795 108.102 100.588C108.091 100.312 108.137 100.128 108.24 100.036C108.504 99.7951 109.073 99.8123 109.946 100.088L111.015 100.485L111.739 100.76L111.998 100.347L113.842 97.4853L113.377 97.1406C112.595 96.5545 111.308 96.204 109.516 96.0891C107.918 95.9972 106.671 96.0948 105.775 96.3821C104.097 96.9107 103.126 97.8588 102.862 99.2262C102.851 99.3297 102.839 99.4331 102.828 99.5365C102.747 100.364 102.971 101.163 103.5 101.932C104.028 102.702 104.787 103.334 105.775 103.829L106.327 104.104C108.659 105.219 109.843 106 109.878 106.449C109.9 106.449 109.855 106.489 109.74 106.569C109.579 106.684 109.36 106.788 109.085 106.88C108.384 107.144 107.522 107.127 106.499 106.828C105.488 106.529 104.81 106.098 104.465 105.535L103.827 104.501L102.638 107.965L102.845 108.241C103.603 109.252 105.068 109.879 107.24 110.12C109.412 110.361 111.124 110.091 112.377 109.31C113.078 108.873 113.538 108.31 113.756 107.621C113.986 106.92 113.963 106.144 113.687 105.294Z" fill="#FF53AA"/>
<rect x="66.6992" y="84.9092" width="13.5105" height="31.3792" fill="#FBB41E"/>
<rect x="102.001" y="94.498" width="15.6896" height="18.7404" fill="#37D9D4"/>
<path d="M87.8365 100.381L94.8096 89.2676L96.5529 88.178L102.437 86.2168C102.654 88.2506 102.872 92.7977 102.001 94.7153C100.911 97.1124 102.001 107.79 102.001 108.226C102.001 108.574 103.163 111.422 103.744 112.802C102.073 113.964 98.5141 116.332 97.6425 116.506C96.5529 116.724 88.2723 113.238 87.8365 112.802C87.4878 112.453 87.1101 106.555 86.9648 103.65L87.8365 100.381Z" fill="#FF5A21"/>
</g>
<defs>
<radialGradient id="paint0_radial_72_1016" cx="0" cy="0" r="1" gradientUnits="userSpaceOnUse" gradientTransform="translate(74 71.1709) rotate(90) scale(51)">
<stop stop-color="#4782CD"/>
<stop offset="1" stop-color="#203785"/>
</radialGradient>
<linearGradient id="paint1_linear_72_1016" x1="68.0695" y1="87.7746" x2="107.802" y2="112.682" gradientUnits="userSpaceOnUse">
<stop stop-color="#3A68B4"/>
<stop offset="0.425225" stop-color="#3158A5"/>
<stop offset="1" stop-color="#203785"/>
</linearGradient>
</defs>
</svg>
