<svg width="55" height="24" viewBox="0 0 55 24" fill="none" xmlns="http://www.w3.org/2000/svg">
<path d="M43.9938 18.5391C42.0748 17.8263 40.8274 17.4167 40.6494 17.7042C40.4713 17.9917 41.4049 18.8804 43.1776 19.9976C44.225 20.6456 45.3096 21.2314 46.4259 21.7523C47.064 22.0497 47.737 22.3444 48.4463 22.6282L49.5541 23.0485C49.8919 23.2052 50.2594 23.2876 50.6318 23.2902C51.0042 23.2928 51.3727 23.2154 51.7123 23.0633C52.0266 22.8944 52.2872 22.6413 52.465 22.3325C52.5515 22.1766 52.6253 22.014 52.6854 21.8461L52.8093 21.4721C52.9191 21.1301 53.0358 20.7979 53.1428 20.4725C53.34 19.8191 53.5343 19.1822 53.7147 18.5774C54.0767 17.3594 54.3589 16.2566 54.5668 15.2872C54.9726 13.4067 55.0919 12.1989 54.7239 12.0848C54.3559 11.9707 53.707 13.0026 52.8524 14.738C52.4286 15.6106 51.9666 16.6571 51.4665 17.8259C51.2515 18.3819 51.0224 18.9698 50.7821 19.5731C50.5013 18.3895 50.0969 17.2385 49.5755 16.1389C48.9453 14.7949 48.1855 13.5153 47.3069 12.318C46.0922 10.5936 44.6747 9.02059 43.0849 7.63255C38.5762 3.75011 32.9388 1.4129 27.002 0.964719C23.7481 0.709842 20.4747 0.9918 17.3135 1.79926C14.3276 2.5581 11.4933 3.81865 8.93218 5.52689C8.33515 5.92936 7.75886 6.36163 7.20551 6.82205C6.9342 7.05073 6.66573 7.26272 6.39427 7.5429C6.12282 7.82308 5.87108 8.03792 5.64997 8.27513C4.78805 9.23421 4.03244 10.2834 3.39624 11.4044C2.29602 13.2441 1.48082 15.2393 0.978212 17.3225C0.182635 20.837 0.664486 23.0659 0.86543 23.0486C1.06637 23.0312 1.08793 20.8793 2.198 17.6415C2.83809 15.7487 3.72312 13.9476 4.83065 12.2838C5.48493 11.3014 6.23731 10.3877 7.07625 9.55677C7.28965 9.34322 7.51373 9.14055 7.74764 8.94955C7.98675 8.75834 8.25933 8.57281 8.51659 8.37609C9.02417 7.97289 9.59854 7.63257 10.1604 7.26436C12.5855 5.80401 15.2335 4.74876 18.0001 4.14025C20.8758 3.50958 23.8337 3.33718 26.7641 3.62944C32.0025 4.16084 36.9495 6.29478 40.9276 9.73904C43.3741 11.8405 45.415 14.3704 46.9496 17.2039C47.5961 18.4646 48.0648 19.4546 48.3877 20.1879L47.3244 19.8096L43.9728 18.5613" fill="white"/>
</svg>
