<svg width="56" height="113" viewBox="0 0 56 113" fill="none" xmlns="http://www.w3.org/2000/svg">
<path d="M24.8859 91.5509C25.6979 87.2641 26.113 84.4966 25.4453 84.2253C24.7777 83.954 23.2438 86.2331 21.5295 90.3571C20.5423 92.7894 19.6988 95.2777 19.0032 97.8094C18.6063 99.2564 18.2273 100.776 17.8845 102.368L17.3973 104.846C17.1886 105.611 17.1467 106.413 17.2743 107.196C17.402 107.98 17.6962 108.726 18.1371 109.386C18.6043 109.986 19.2292 110.443 19.9416 110.706C20.3001 110.832 20.6682 110.929 21.0423 110.996L21.8724 111.122C22.6303 111.231 23.3701 111.357 24.0919 111.466C25.5355 111.647 26.943 111.828 28.2784 111.99C30.9671 112.316 33.3851 112.515 35.4964 112.605C39.5926 112.786 42.173 112.605 42.2813 111.791C42.3895 110.977 39.9895 109.983 36.0377 108.807C34.0528 108.228 31.6889 107.631 29.0543 106.998C27.8092 106.745 26.4919 106.474 25.1385 106.184C27.5252 105.171 29.7993 103.91 31.9235 102.422C34.5222 100.617 36.9396 98.5638 39.1414 96.29C42.3307 93.1214 45.1296 89.581 47.4782 85.7447C54.0252 74.8837 56.9221 62.2032 55.7428 49.5687C55.1158 42.6404 53.3539 35.863 50.5278 29.5091C47.8665 23.5062 44.2052 18.0012 39.7008 13.2299C38.6418 12.1192 37.5277 11.0628 36.3625 10.0645C35.7851 9.57617 35.2437 9.08778 34.558 8.6175C33.8723 8.14721 33.331 7.69501 32.7535 7.31516C30.4303 5.84674 27.9559 4.63385 25.3731 3.69756C21.1144 2.04305 16.6308 1.04295 12.074 0.731133C4.40489 0.315109 -0.106358 2.12391 0.00191108 2.53993C0.11018 2.95595 4.63948 2.23244 11.8394 3.40816C16.0452 4.07689 20.146 5.29303 24.0378 7.02576C26.3357 8.04958 28.5243 9.30405 30.5701 10.77C31.0951 11.1421 31.601 11.5405 32.0859 11.9638C32.5731 12.3979 33.0603 12.9043 33.5656 13.3746C34.5941 14.2971 35.5144 15.3824 36.4888 16.4315C40.4237 21.0053 43.5871 26.1924 45.8542 31.7882C48.2067 37.6053 49.6258 43.759 50.0586 50.0209C50.8136 61.2178 48.0971 72.3749 42.2813 81.9643C38.7398 87.8556 34.153 93.0479 28.7475 97.2848C26.3295 99.0936 24.4168 100.432 22.9912 101.373L23.4062 99.0032L24.8318 91.5147" fill="#3578F7"/>
</svg>
