<svg width="231" height="160" viewBox="0 0 231 160" fill="none" xmlns="http://www.w3.org/2000/svg">
<circle cx="115.417" cy="44.4847" r="93.9546" transform="rotate(-15 115.417 44.4847)" fill="url(#paint0_linear_72_1044)"/>
<path d="M176.746 74.0986C176.536 73.8494 176.348 73.6463 176.182 73.4879C173.355 70.5879 168.577 67.3786 161.851 63.8584L161.706 63.7752L161.634 63.7347L161.561 63.693L161.503 63.7085C158.435 62.0523 156.467 60.9129 155.604 60.2909C154.01 59.0929 153.332 57.6293 153.565 55.9001C153.709 54.6021 154.768 51.6587 156.736 47.0677C157.767 44.6378 158.579 42.6943 159.172 41.235C163.456 30.7417 164.834 24.4008 163.303 22.2104L162.809 21.735C162.488 21.4553 161.811 21.3019 160.779 21.2732C159.745 21.2456 158.508 21.5267 157.066 22.1161L140.565 26.6589C140.272 26.6367 139.892 26.7479 139.424 26.9953C138.957 27.2426 138.723 27.3664 138.723 27.3664L138.474 27.5859L138.291 27.8182C138.13 27.9826 137.973 28.238 137.819 28.5839C137.667 28.9286 137.565 29.3124 137.513 29.7324C136.942 34.8015 136.039 39.6145 134.798 44.172C134.012 46.9022 133.258 49.2878 132.532 51.331C131.808 53.3731 131.153 54.9102 130.569 55.9397C129.983 56.9704 129.432 57.8179 128.912 58.4859C128.394 59.1538 127.953 59.4954 127.588 59.5113C127.223 59.5274 126.878 59.5388 126.55 59.5454C125.924 59.3476 125.368 58.9987 124.886 58.4982C124.403 57.9981 123.985 57.3174 123.632 56.4573C123.279 55.5965 123.006 54.8478 122.813 54.2083C122.623 53.5692 122.387 52.6562 122.111 51.4708C121.836 50.2845 121.641 49.4843 121.529 49.0672C121.143 47.6265 120.752 46.0553 120.357 44.3532C119.963 42.6507 119.652 41.3016 119.427 40.3065C119.202 39.3104 118.941 38.2627 118.646 37.1634C118.352 36.064 118.053 35.2199 117.752 34.63C117.453 34.0403 117.088 33.4879 116.663 32.9713C116.237 32.4557 115.723 32.1065 115.121 31.922C114.518 31.7381 113.807 31.6545 112.992 31.6693C110.842 31.7581 108.193 32.2043 105.044 33.0071C97.9058 34.8386 93.4543 36.5193 91.6901 38.0484C90.9981 38.6802 90.4233 39.4441 89.966 40.3381C89.5005 41.357 89.5264 41.838 90.0438 41.7796C92.4316 41.505 94.2758 41.8845 95.578 42.9169L96.1058 43.5075C96.506 43.9283 97.0076 44.7289 97.6107 45.9078C98.2135 47.0868 98.7569 48.4241 99.239 49.9193C100.172 52.6359 100.806 55.0051 101.144 57.0272C101.48 59.0502 101.711 60.6336 101.832 61.7793C101.954 62.9249 101.935 63.8849 101.773 64.6593C101.611 65.434 101.494 65.9125 101.419 66.0947C101.345 66.2768 101.275 66.3978 101.209 66.4556C100.762 66.7777 100.271 67.0125 99.7352 67.156C99.1989 67.2997 98.4775 67.2082 97.57 66.8823C96.6627 66.5563 95.6733 66.0398 94.6015 65.3314C93.5296 64.6228 92.2536 63.5732 90.7731 62.1824C89.2934 60.7913 87.6936 59.1074 85.9743 57.1304L84.6141 55.727C83.7558 54.8197 82.5576 53.4847 81.0193 51.7236C79.4801 49.962 78.0743 48.2357 76.8014 46.5452C76.2823 45.8311 75.6605 45.3482 74.9365 45.0952L74.6034 45.0011C74.3718 44.9009 74.0221 44.8224 73.5556 44.7638C73.0886 44.7056 72.6162 44.7007 72.1363 44.7483L56.438 49.0759C54.8307 49.5066 53.8368 50.1595 53.4556 51.0337L53.3171 51.4361C53.2531 51.6566 53.2765 51.9753 53.3883 52.3925C53.5 52.8095 53.752 53.2906 54.1442 53.8351C57.8726 58.5653 61.7509 63.0515 65.7793 67.2945C69.8077 71.5375 73.2239 74.9094 76.0255 77.4072C78.828 79.907 81.6233 82.2261 84.411 84.363C87.1989 86.5008 89.0291 87.8592 89.9015 88.4377C90.775 89.0173 91.4535 89.4439 91.9377 89.7203L93.7386 90.7002C94.9009 91.3641 96.5416 92.0925 98.6614 92.8853C100.782 93.6788 103.087 94.4015 105.58 95.0551C108.072 95.7067 110.858 96.0371 113.936 96.0449C117.015 96.0536 119.892 95.6171 122.569 94.7385L129.17 92.9696C130.479 92.4963 131.381 91.8075 131.878 90.903L132.03 90.5568C132.123 90.2894 132.172 89.8994 132.178 89.3908C132.186 88.881 132.113 88.3411 131.96 87.7733C131.485 86.1541 131.216 84.6517 131.152 83.2673C131.088 81.8834 131.15 80.8103 131.337 80.0488C131.524 79.2879 131.785 78.6181 132.121 78.0417C132.458 77.4641 132.711 77.101 132.878 76.9549C133.043 76.8084 133.178 76.7029 133.282 76.6333C134.119 76.0841 135.279 76.088 136.763 76.646C138.245 77.2036 139.707 77.9909 141.149 79.0058C142.59 80.022 144.294 81.1389 146.261 82.3585C148.229 83.5785 149.893 84.4316 151.254 84.9213L152.585 85.2961C153.473 85.546 154.58 85.6964 155.906 85.7472C157.23 85.7984 158.327 85.6062 159.196 85.1703L173.83 81.0058C175.284 80.6164 176.351 80.0749 177.026 79.387C177.703 78.6978 178.041 78.0478 178.043 77.4388C178.044 76.8292 177.879 76.1821 177.553 75.4967C177.225 74.814 176.956 74.3471 176.746 74.0986Z" fill="white"/>
<defs>
<linearGradient id="paint0_linear_72_1044" x1="115.417" y1="-49.4698" x2="115.417" y2="138.439" gradientUnits="userSpaceOnUse">
<stop stop-color="#3476F6"/>
<stop offset="1" stop-color="#346AF6"/>
</linearGradient>
</defs>
</svg>
