<svg width="173" height="189" viewBox="0 0 173 189" fill="none" xmlns="http://www.w3.org/2000/svg">
<path d="M20.3593 178.032C19.1795 173.806 40.6495 139.867 45.552 127.776C51.3463 126.177 62.9973 123.361 63.2468 124.892C63.5586 126.805 50.4568 181.963 48.2994 183.788C46.1421 185.612 21.539 182.258 20.3593 178.032Z" fill="#F48C6B"/>
<path d="M109.349 173.186C110.529 168.96 89.059 135.021 84.1564 122.93C78.3622 121.331 66.7112 118.516 66.4617 120.046C66.1499 121.959 79.2517 177.117 81.4091 178.942C83.5664 180.767 108.17 177.413 109.349 173.186Z" fill="#F48C6B"/>
<path d="M6.98641 73.9259C11.2639 68.7279 32.1692 76.0385 57.2388 87.9501C56.2065 94.3279 53.6481 107.102 51.6727 107.175C49.2035 107.266 16.3533 100.967 7.88433 95.6692C-0.584589 90.3715 2.70888 79.1239 6.98641 73.9259Z" fill="#F48C6B"/>
<path d="M143.015 71.0185C138.737 65.8205 117.832 73.1311 92.7621 85.0427C93.7945 91.4205 96.3529 104.194 98.3282 104.267C100.797 104.358 133.648 98.0595 142.117 92.7618C150.586 87.4641 147.292 76.2165 143.015 71.0185Z" fill="#F48C6B"/>
<path d="M40.3021 137.917C23.827 132.102 40.3022 96.2453 48.055 80.2549C62.1072 72.825 91.956 61.4541 98.9336 75.4093C107.656 92.8534 104.748 129.195 98.9336 134.525C93.1189 139.855 56.7771 143.732 40.3021 137.917Z" fill="#F48C6B"/>
<path d="M50.5231 114.65C52.946 108.351 55.3686 100.114 64.0907 91.3916C74.7511 83.6387 83.4729 97.2063 87.3494 114.65C91.2258 132.094 70.3895 129.672 60.6983 129.187C51.0072 128.702 48.1002 120.95 50.5231 114.65Z" fill="#F2C9C9"/>
<path d="M29.562 7.3877C41.0202 -0.804473 49.113 22.323 46.3402 31.3135C44.8169 33.7687 41.1468 39.1084 38.6533 40.8256C35.5364 42.9721 19.6133 41.5084 14.2666 36.151C8.91981 30.7935 18.1038 15.5799 29.562 7.3877Z" fill="#F48C6B"/>
<path d="M40.483 34.6598C38.1571 37.247 27.346 35.7011 24.5599 33.1962C21.7737 30.6913 24.1235 25.8139 26.4494 23.2268C28.7754 20.6397 34.0436 18.9619 36.8297 21.4668C39.6159 23.9717 42.809 32.0727 40.483 34.6598Z" fill="#F2C9C9"/>
<path d="M119.856 14.9981C128.933 25.7687 106.523 35.6748 97.34 33.6256C94.7714 32.3024 89.1568 29.0685 87.2468 26.7195C84.8593 23.7831 85.0521 7.79402 89.9675 2.03821C94.8828 -3.71761 110.779 4.22761 119.856 14.9981Z" fill="#F48C6B"/>
<path d="M93.5383 28.0536C90.7744 25.9407 91.4558 15.041 93.7312 12.0645C96.0066 9.088 101.055 11.0425 103.819 13.1553C106.583 15.2682 108.674 20.3863 106.399 23.3628C104.124 26.3393 96.3022 30.1665 93.5383 28.0536Z" fill="#F2C9C9"/>
<path d="M115.128 55.724C115.128 74.1894 94.0485 89.1585 71.0337 89.1585C48.019 89.1585 29.3618 74.1894 29.3618 55.724C29.3618 37.2587 37.5993 22.2896 71.0337 22.2896C102.045 22.2896 115.128 37.2587 115.128 55.724Z" fill="#F48C6B"/>
<path d="M51.1425 56.2087C53.0808 51.3631 59.8894 45.5484 72.4631 45.5484C102.53 45.5484 94.7775 73.1682 90.4165 77.5292C86.0555 81.8902 72.4631 85.7666 58.4109 78.9828C44.3587 72.199 49.2043 61.0542 51.1425 56.2087Z" fill="#F2C9C9"/>
<circle cx="56.4968" cy="43.6102" r="1.93823" fill="black"/>
<circle cx="89.447" cy="41.6719" r="1.93823" fill="black"/>
<path d="M63.2808 74.6218C71.0337 77.0446 77.8175 78.4983 85.0858 72.6836" stroke="black" stroke-width="2" stroke-linecap="round"/>
<path d="M78.302 46.5176C78.302 48.1233 75.8649 50.394 73.4564 50.394C71.0479 50.394 68.6108 48.1233 68.6108 46.5176C68.6108 44.9119 71.0479 44.5793 73.4564 44.5793C75.8649 44.5793 78.302 44.9119 78.302 46.5176Z" fill="black"/>
<path d="M135.326 44.0212L141.063 49.8152C142.106 50.8685 143.762 51.0021 144.96 50.1297L168.423 33.0487" stroke="#7BC35A" stroke-width="9" stroke-linecap="round" stroke-linejoin="round"/>
</svg>
