<svg width="1460" height="288" viewBox="0 0 1460 288" fill="none" xmlns="http://www.w3.org/2000/svg">
<mask id="mask0_39_25" style="mask-type:alpha" maskUnits="userSpaceOnUse" x="0" y="0" width="1460" height="288">
<path fill-rule="evenodd" clip-rule="evenodd" d="M0 46.7503C0 21.103 20.7912 0.311768 46.4385 0.311768H1412.17C1438.59 0.311768 1460 21.7241 1460 48.1376C1460 73.1438 1437.31 93.1718 1422.33 113.196C1415.84 121.873 1412 132.643 1412 144.312C1412 156.153 1415.96 167.069 1422.62 175.811C1437.62 195.481 1460 215.27 1460 240.005C1460 266.132 1438.82 287.312 1412.69 287.312H45.9338C20.5653 287.312 0 266.747 0 241.378C0 216.347 23.4362 196.581 39.2791 177.202C46.6052 168.241 51 156.789 51 144.312C51 132.012 46.7297 120.71 39.5908 111.807C23.7601 92.0637 0 72.0562 0 46.7503Z" fill="white"/>
</mask>
<g mask="url(#mask0_39_25)">
<mask id="path-2-inside-1_39_25" fill="white">
<path fill-rule="evenodd" clip-rule="evenodd" d="M0 46.7503C0 21.103 20.7912 0.311768 46.4385 0.311768H1412.17C1438.59 0.311768 1460 21.7241 1460 48.1376C1460 73.1438 1437.31 93.1718 1422.33 113.196C1415.84 121.873 1412 132.643 1412 144.312C1412 156.153 1415.96 167.069 1422.62 175.811C1437.62 195.481 1460 215.27 1460 240.005C1460 266.132 1438.82 287.312 1412.69 287.312H45.9338C20.5653 287.312 0 266.747 0 241.378C0 216.347 23.4362 196.581 39.2791 177.202C46.6052 168.241 51 156.789 51 144.312C51 132.012 46.7297 120.71 39.5908 111.807C23.7601 92.0637 0 72.0562 0 46.7503Z"/>
</mask>
<path fill-rule="evenodd" clip-rule="evenodd" d="M0 46.7503C0 21.103 20.7912 0.311768 46.4385 0.311768H1412.17C1438.59 0.311768 1460 21.7241 1460 48.1376C1460 73.1438 1437.31 93.1718 1422.33 113.196C1415.84 121.873 1412 132.643 1412 144.312C1412 156.153 1415.96 167.069 1422.62 175.811C1437.62 195.481 1460 215.27 1460 240.005C1460 266.132 1438.82 287.312 1412.69 287.312H45.9338C20.5653 287.312 0 266.747 0 241.378C0 216.347 23.4362 196.581 39.2791 177.202C46.6052 168.241 51 156.789 51 144.312C51 132.012 46.7297 120.71 39.5908 111.807C23.7601 92.0637 0 72.0562 0 46.7503Z" fill="white"/>
<path d="M39.5908 111.807L51.2933 102.423L39.5908 111.807ZM1422.62 175.811L1434.55 166.716L1422.62 175.811ZM1422.33 113.196L1434.34 122.181L1422.33 113.196ZM1412.17 -14.6882H46.4385V15.3118H1412.17V-14.6882ZM1427 144.312C1427 135.992 1429.73 128.353 1434.34 122.181L1410.32 104.212C1401.96 115.393 1397 129.295 1397 144.312H1427ZM1434.55 166.716C1429.81 160.497 1427 152.754 1427 144.312H1397C1397 159.552 1402.11 173.642 1410.69 184.906L1434.55 166.716ZM45.9338 302.312H1412.69V272.312H45.9338V302.312ZM36 144.312C36 153.204 32.8822 161.327 27.6661 167.708L50.8922 186.696C60.3282 175.154 66 160.375 66 144.312H36ZM27.8882 121.19C32.9701 127.528 36 135.545 36 144.312H66C66 128.479 60.4892 113.892 51.2933 102.423L27.8882 121.19ZM51.2933 102.423C47.0522 97.1338 42.2768 91.8236 37.9737 86.9468C33.5336 81.9147 29.4437 77.1779 25.8892 72.4051C18.6641 62.7036 15 54.5872 15 46.7503H-15C-15 64.2193 -6.78398 78.7596 1.82863 90.3241C6.19299 96.1843 11.0114 101.733 15.4787 106.796C20.0829 112.014 24.214 116.608 27.8882 121.19L51.2933 102.423ZM15 241.378C15 233.673 18.5907 225.684 25.715 216.148C29.2199 211.457 33.2636 206.798 37.6604 201.86C41.9161 197.081 46.6703 191.86 50.8922 186.696L27.6661 167.708C23.9665 172.233 19.8501 176.75 15.2557 181.91C10.8023 186.911 6.01649 192.391 1.6819 198.193C-6.87262 209.643 -15 224.052 -15 241.378H15ZM45.9338 272.312C28.8495 272.312 15 258.462 15 241.378H-15C-15 275.031 12.281 302.312 45.9338 302.312V272.312ZM1410.69 184.906C1414.72 190.183 1419.23 195.465 1423.3 200.31C1427.5 205.307 1431.36 209.993 1434.71 214.705C1441.51 224.263 1445 232.267 1445 240.005H1475C1475 223.008 1467.3 208.75 1459.16 197.312C1455.04 191.526 1450.49 186.031 1446.27 181.012C1441.93 175.842 1438.03 171.274 1434.55 166.716L1410.69 184.906ZM1445 48.1376C1445 56.0053 1441.44 64.1354 1434.55 73.8565C1431.15 78.6491 1427.25 83.4113 1423.01 88.5016C1418.9 93.4409 1414.36 98.8139 1410.32 104.212L1434.34 122.181C1437.8 117.567 1441.71 112.927 1446.06 107.698C1450.29 102.619 1454.87 97.057 1459.02 91.2137C1467.21 79.6631 1475 65.2761 1475 48.1376H1445ZM46.4385 -14.6882C12.5069 -14.6882 -15 12.8187 -15 46.7503H15C15 29.3873 29.0755 15.3118 46.4385 15.3118V-14.6882ZM1445 240.005C1445 257.848 1430.54 272.312 1412.69 272.312V302.312C1447.1 302.312 1475 274.416 1475 240.005H1445ZM1412.17 15.3118C1430.3 15.3118 1445 30.0084 1445 48.1376H1475C1475 13.4398 1446.87 -14.6882 1412.17 -14.6882V15.3118Z" fill="white" fill-opacity="0.3" mask="url(#path-2-inside-1_39_25)"/>
</g>
</svg>
