<svg width="704" height="843" viewBox="0 0 704 843" fill="none" xmlns="http://www.w3.org/2000/svg">
<mask id="path-1-inside-1_1518_2721" fill="white">
<path fill-rule="evenodd" clip-rule="evenodd" d="M597.111 0.115962C656.145 0.115965 704.001 47.972 704.001 107.006L704.001 736.11C704.001 795.144 656.145 843 597.111 843L554.736 843C497.721 843 443.61 779.71 386.61 778.446C386.099 778.435 385.588 778.429 385.074 778.429L305.927 778.429C305.414 778.429 304.902 778.435 304.392 778.446C247.392 779.71 193.281 843 136.266 843L106.891 843C47.8571 843 0.000941811 795.144 0.000944391 736.11L0.00097189 107.006C0.000974471 47.9721 47.8571 0.115938 106.891 0.115941L152.728 0.115943C204.167 0.115945 253.372 56.8484 304.81 56.8484L399.192 56.8484C450.631 56.8484 499.835 0.115958 551.274 0.11596L597.111 0.115962Z"/>
</mask>
<path fill-rule="evenodd" clip-rule="evenodd" d="M597.111 0.115962C656.145 0.115965 704.001 47.972 704.001 107.006L704.001 736.11C704.001 795.144 656.145 843 597.111 843L554.736 843C497.721 843 443.61 779.71 386.61 778.446C386.099 778.435 385.588 778.429 385.074 778.429L305.927 778.429C305.414 778.429 304.902 778.435 304.392 778.446C247.392 779.71 193.281 843 136.266 843L106.891 843C47.8571 843 0.000941811 795.144 0.000944391 736.11L0.00097189 107.006C0.000974471 47.9721 47.8571 0.115938 106.891 0.115941L152.728 0.115943C204.167 0.115945 253.372 56.8484 304.81 56.8484L399.192 56.8484C450.631 56.8484 499.835 0.115958 551.274 0.11596L597.111 0.115962Z" fill="white"/>
<path d="M386.61 778.446L387.256 749.302L386.61 778.446ZM733.153 736.11L733.153 107.006L674.849 107.006L674.849 736.11L733.153 736.11ZM554.736 872.152L597.111 872.152L597.111 813.848L554.736 813.848L554.736 872.152ZM385.074 807.581C385.372 807.581 385.668 807.584 385.963 807.591L387.256 749.302C386.53 749.286 385.803 749.277 385.074 749.277L385.074 807.581ZM305.927 807.581L385.074 807.581L385.074 749.277L305.927 749.277L305.927 807.581ZM305.038 807.591C305.333 807.584 305.63 807.581 305.927 807.581L305.927 749.277C305.199 749.277 304.472 749.286 303.746 749.302L305.038 807.591ZM106.891 872.152L136.266 872.152L136.266 813.848L106.891 813.848L106.891 872.152ZM-29.1508 107.006L-29.1508 736.11L29.1527 736.11L29.1527 107.006L-29.1508 107.006ZM152.728 -29.0358L106.891 -29.0358L106.891 29.2677L152.728 29.2677L152.728 -29.0358ZM399.192 27.6967L304.81 27.6967L304.81 86.0001L399.192 86.0001L399.192 27.6967ZM597.111 -29.0358L551.274 -29.0358L551.274 29.2677L597.111 29.2677L597.111 -29.0358ZM152.728 29.2677C169.298 29.2677 187.4 38.6268 214.454 53.8771C237.722 66.9931 269.941 86.0001 304.81 86.0001L304.81 27.6967C288.241 27.6967 270.138 18.3375 243.084 3.08725C219.817 -10.0287 187.597 -29.0358 152.728 -29.0358L152.728 29.2677ZM29.1527 107.006C29.1527 64.0721 63.9572 29.2677 106.891 29.2677L106.891 -29.0358C31.757 -29.0358 -29.1508 31.872 -29.1508 107.006L29.1527 107.006ZM554.736 813.848C535.499 813.848 514.786 802.945 485.204 785.928C459.378 771.072 424.698 750.132 387.256 749.302L385.963 807.591C405.523 808.025 426.398 819.362 456.131 836.466C482.108 851.41 516.958 872.152 554.736 872.152L554.736 813.848ZM106.891 813.848C63.9571 813.848 29.1527 779.044 29.1527 736.11L-29.1508 736.11C-29.1508 811.244 31.757 872.152 106.891 872.152L106.891 813.848ZM733.153 107.006C733.153 31.8719 672.245 -29.0358 597.111 -29.0358L597.111 29.2677C640.045 29.2677 674.849 64.0721 674.849 107.006L733.153 107.006ZM303.746 749.302C266.304 750.132 231.624 771.072 205.798 785.928C176.216 802.945 155.503 813.848 136.266 813.848L136.266 872.152C174.044 872.152 208.894 851.41 234.871 836.466C264.604 819.362 285.479 808.025 305.038 807.591L303.746 749.302ZM399.192 86.0001C434.061 86.0001 466.28 66.9931 489.548 53.8771C516.602 38.6269 534.704 29.2677 551.274 29.2677L551.274 -29.0358C516.405 -29.0358 484.185 -10.0287 460.918 3.08726C433.864 18.3375 415.762 27.6967 399.192 27.6967L399.192 86.0001ZM674.849 736.11C674.849 779.044 640.045 813.848 597.111 813.848L597.111 872.152C672.245 872.152 733.153 811.244 733.153 736.11L674.849 736.11Z" fill="white" fill-opacity="0.3" mask="url(#path-1-inside-1_1518_2721)"/>
</svg>
