<svg width="1331" height="485" viewBox="0 0 1331 485" fill="none" xmlns="http://www.w3.org/2000/svg">
<path d="M774 118.609C837 79.1094 1096 5.10941 1141.5 128.609" stroke="#FCEFE8" stroke-width="28"/>
<path d="M801 366.268C721.629 405.596 395.324 479.274 338 356.312" stroke="#FCEFE8" stroke-width="28"/>
<path d="M1005.5 366.312C942.5 405.812 683.5 479.812 638 356.312" stroke="#FCEFE8" stroke-width="28"/>
<path d="M8 108.609C71 69.1094 330 -4.89059 375.5 118.609" stroke="#FCEFE8" stroke-width="28"/>
<path d="M281 299.812C281 365.258 212.946 446.312 147.5 446.312C82.0543 446.312 16 402.758 16 337.312C16 271.866 82.0543 209.312 147.5 209.312C212.946 209.312 281 234.366 281 299.812Z" fill="#FCEFE8"/>
<path d="M637.662 137.372C614.549 76.143 522.255 24.3461 461.026 47.4592C399.798 70.5722 353.382 134.648 376.495 195.876C399.608 257.105 483.498 292.3 544.726 269.187C605.955 246.074 660.775 198.6 637.662 137.372Z" fill="#FCEFE8"/>
<path d="M1298.35 281.541C1275.24 220.313 1165.82 174.981 1088.12 204.311C1010.42 233.641 947.381 303.992 970.494 365.22C993.607 426.449 1094.12 455.369 1171.82 426.039C1249.52 396.709 1321.46 342.77 1298.35 281.541Z" fill="#FCEFE8"/>
</svg>
