<svg width="162" height="172" viewBox="0 0 162 172" fill="none" xmlns="http://www.w3.org/2000/svg">
<path d="M115.709 0C142.516 0 153.703 29.6819 153.703 53.3078C153.703 101.266 79.0741 140.532 77.7148 140.532C77.7148 144.843 0 93.6527 0 45.6944C0 22.0686 19.7023 4.31079 46.5091 4.31079C61.8334 4.31079 71.8975 17.2783 77.7148 24.1404C83.5321 17.2783 100.384 0 115.709 0Z" fill="#FF276C"/>
<path d="M74.8207 64.8821C74.8207 74.843 66.7457 82.9179 56.7848 82.9179C46.8239 82.9179 38.749 74.843 38.749 64.8821C38.749 54.9212 48.4636 45.2067 58.4245 45.2067C68.3854 45.2067 74.8207 54.9212 74.8207 64.8821Z" fill="url(#paint0_radial_100_135)"/>
<circle cx="56.786" cy="64.8822" r="8.1981" fill="#2C0058"/>
<circle cx="50.2284" cy="61.603" r="4.91886" fill="white"/>
<path d="M136.818 70.0486C136.818 80.0095 128.743 88.0844 118.782 88.0844C108.821 88.0844 100.747 80.0095 100.747 70.0486C100.747 60.0877 110.461 50.3732 120.422 50.3732C130.383 50.3732 136.818 60.0877 136.818 70.0486Z" fill="url(#paint1_radial_100_135)"/>
<circle cx="118.78" cy="70.0486" r="8.1981" fill="#2C0058"/>
<circle cx="112.227" cy="66.7693" r="4.91886" fill="white"/>
<path d="M63.7749 29.4407C55.8523 29.4407 30.5001 41.2908 29.7078 45.4731" stroke="#A40F5A" stroke-width="9" stroke-linecap="round"/>
<path d="M157 31.2457C150.259 27.5837 121.612 25.9488 118.44 29.1414" stroke="#A40F5A" stroke-width="9" stroke-linecap="round"/>
<path d="M99.3608 109.52C88.5394 116.734 70.5035 111.323 63.2892 105.913" stroke="white" stroke-width="5.08" stroke-linecap="round"/>
<path d="M54.0113 105.729C53.3936 101.402 57.6502 96.7182 60.3372 95.3156" stroke="white" stroke-width="5.08" stroke-linecap="round"/>
<path d="M38.441 132.895C42.9109 130.516 47.4722 134.589 49.618 138.621C53.9738 146.806 45.0962 160.13 44.8695 160.251C45.261 160.986 27.653 159.146 23.2972 150.962C21.1514 146.929 22.8238 142.15 27.2937 139.772C29.849 138.412 32.7049 139.732 34.2982 140.387C34.6449 138.699 35.8857 134.255 38.441 132.895Z" fill="#DE358A"/>
<path d="M122.442 133.199C115.518 134.051 113.594 142.252 114.362 148.498C115.922 161.175 136.473 169.184 136.824 169.141C136.964 170.28 155.371 154.28 153.812 141.602C153.044 135.357 147.378 131.289 140.454 132.14C136.497 132.627 134.319 136.375 133.04 138.374C131.314 136.744 126.4 132.712 122.442 133.199Z" fill="#7BC35A"/>
<defs>
<radialGradient id="paint0_radial_100_135" cx="0" cy="0" r="1" gradientUnits="userSpaceOnUse" gradientTransform="translate(56.7848 64.0623) rotate(90) scale(18.8556 18.0358)">
<stop offset="0.263763" stop-color="#FAFAFA"/>
<stop offset="1" stop-color="#F7F5F5"/>
</radialGradient>
<radialGradient id="paint1_radial_100_135" cx="0" cy="0" r="1" gradientUnits="userSpaceOnUse" gradientTransform="translate(118.782 69.2288) rotate(90) scale(18.8556 18.0358)">
<stop offset="0.263763" stop-color="#FAFAFA"/>
<stop offset="1" stop-color="#F7F5F5"/>
</radialGradient>
</defs>
</svg>
