<svg width="169" height="167" viewBox="0 0 169 167" fill="none" xmlns="http://www.w3.org/2000/svg">
<path fill-rule="evenodd" clip-rule="evenodd" d="M83.6797 24.7845C84.3266 23.1166 83.9271 21.2197 82.6618 19.9554C81.3945 18.6881 79.5005 18.2896 77.8309 18.9355C51.6814 29.0815 33.1211 54.4999 33.1211 84.2191C33.1211 122.852 64.4849 154.219 103.121 154.219C132.839 154.219 158.257 135.658 168.403 109.51C169.052 107.839 168.652 105.946 167.385 104.679C166.118 103.412 164.224 103.013 162.554 103.661C155.723 106.313 136.621 112.818 128.861 112.818C95.2158 112.818 75.0397 96.7804 75.0397 63.1366C75.0397 55.3743 81.0308 31.6179 83.6808 24.7843L83.6797 24.7845Z" fill="#4782CD"/>
<path d="M40.8837 33.1208L44.1662 50.0214L61.0667 53.3039L44.1662 56.5863L40.8837 73.4869L37.6012 56.5863L20.7007 53.3039L37.6012 50.0214L40.8837 33.1208Z" fill="#7BC35A"/>
<path d="M107.778 73.5047C107.652 73.4946 107.5 73.4971 107.324 73.5122L107.137 73.5282C106.649 73.57 106.339 73.5547 106.208 73.4824C106.101 73.0839 106.032 72.7133 106.003 72.3708L105.969 71.7935C105.947 71.534 105.912 71.2547 105.866 70.9555L105.917 69.7279C106.259 69.3222 106.609 68.827 106.966 68.2422C107.334 67.6566 107.669 67.1052 107.969 66.5881C108.287 66.0276 108.535 65.6196 108.711 65.364C109.237 64.5453 109.655 63.5006 109.964 62.23C110.07 62.0013 110.354 61.2974 110.818 60.1181C111.704 57.7734 112.352 56.2438 112.761 55.5291C112.982 55.1757 113.175 54.8089 113.341 54.4287C113.247 54.4264 113.173 54.417 113.119 54.4007C111.962 54.5626 110.714 54.7009 109.376 54.8156L108.8 54.865C107.824 54.9486 106.958 55.0332 106.202 55.1189C106.076 55.1088 105.925 55.1114 105.748 55.1265L105.39 55.1572C105.027 55.1883 104.774 55.1681 104.632 55.0967C104.525 54.6981 104.457 54.3276 104.427 53.9851L104.393 53.4078C104.371 53.1483 104.337 52.8741 104.292 52.5853L104.342 51.3421C104.554 51.2612 104.905 51.1998 105.392 51.158L106.358 51.0753C106.811 50.9946 107.063 50.9521 107.115 50.9476C107.177 50.9423 107.331 50.9082 107.577 50.8453L109.526 50.7097L110.803 50.6159C111.343 50.5696 111.871 50.5087 112.387 50.4331C113.152 50.3258 113.731 50.2552 114.126 50.2214C115.039 50.1431 115.967 50.1786 116.911 50.3278C117.078 50.8153 117.197 51.4793 117.269 52.32C117.331 53.0361 117.308 53.5033 117.201 53.7216L117.148 53.8359C115.638 57.3213 114.682 59.3322 114.278 59.8686C114.175 60.0029 114.083 60.2722 114.002 60.6764C112.795 63.7908 111.542 66.6164 110.244 69.1532C110.555 69.1266 110.846 69.1069 111.117 69.0941L112.378 68.986C112.917 68.9398 113.445 68.8789 113.962 68.8033L115.717 68.6058C116.62 68.5284 117.542 68.5591 118.485 68.6979C118.657 69.2477 118.779 69.9325 118.849 70.7525C118.899 71.3337 118.887 71.8051 118.813 72.1669C118.766 72.2232 118.563 72.2929 118.204 72.376C117.844 72.4486 117.422 72.5266 116.938 72.6099C116.453 72.6828 115.998 72.7375 115.572 72.774C115.157 72.8096 114.865 72.8137 114.695 72.7864C113.372 72.9626 111.932 73.1173 110.375 73.2507C109.4 73.3343 108.534 73.419 107.778 73.5047Z" fill="#EB433C"/>
<path d="M129.578 89.7543C129.512 89.7099 129.429 89.6646 129.328 89.6184L129.222 89.5695C128.944 89.4417 128.78 89.3379 128.731 89.258C128.796 89.0082 128.873 88.7857 128.962 88.5905L129.122 88.2662C129.19 88.1183 129.257 87.9559 129.324 87.7789L129.731 87.1274C130.042 87.0123 130.385 86.8509 130.759 86.6433C131.14 86.4385 131.492 86.2418 131.815 86.0534C132.16 85.8468 132.421 85.7013 132.596 85.6169C133.134 85.334 133.683 84.8948 134.243 84.2995C134.371 84.2079 134.743 83.913 135.359 83.4149C136.564 82.4137 137.388 81.7819 137.83 81.5197C138.059 81.3956 138.278 81.2558 138.485 81.1004C138.435 81.07 138.397 81.0421 138.373 81.0167C137.694 80.7478 136.973 80.4381 136.21 80.0876L135.882 79.9368C135.326 79.6813 134.829 79.4603 134.392 79.2738C134.326 79.2294 134.243 79.184 134.142 79.1378L133.938 79.0441C133.731 78.949 133.6 78.8601 133.545 78.7774C133.609 78.5277 133.687 78.3052 133.776 78.11L133.936 77.7857C134.004 77.6378 134.07 77.4783 134.134 77.3072L134.545 76.6469C134.685 76.6685 134.895 76.7431 135.173 76.8708L135.723 77.1235C135.994 77.2194 136.145 77.2742 136.174 77.2878C136.21 77.3041 136.304 77.333 136.457 77.3746L137.558 77.9018L138.281 78.2449C138.589 78.3862 138.895 78.516 139.199 78.6341C139.648 78.8115 139.984 78.9518 140.209 79.0551C140.73 79.2942 141.223 79.5998 141.69 79.9718C141.631 80.2884 141.491 80.6863 141.271 81.1655C141.083 81.5737 140.927 81.8207 140.802 81.9064L140.738 81.9522C138.842 83.3812 137.701 84.1793 137.317 84.3464C137.219 84.3875 137.086 84.5055 136.918 84.7004C135.301 86.0211 133.748 87.1708 132.26 88.1493C132.437 88.2308 132.602 88.3099 132.753 88.3864L133.472 88.7166C133.779 88.8579 134.085 88.9876 134.389 89.1057L135.404 89.5397C135.919 89.7761 136.411 90.0774 136.88 90.4435C136.805 90.7955 136.659 91.2053 136.445 91.6727C136.293 92.004 136.141 92.2566 135.989 92.4306C135.946 92.4466 135.814 92.4218 135.593 92.3563C135.375 92.2848 135.122 92.1971 134.833 92.093C134.547 91.9831 134.283 91.8724 134.04 91.761C133.803 91.6523 133.643 91.5643 133.559 91.4972C132.786 91.1849 131.955 90.8249 131.068 90.4173C130.512 90.1618 130.015 89.9409 129.578 89.7543Z" fill="#275591"/>
<path d="M128.531 39.1938C128.375 39.1352 128.183 39.0832 127.955 39.0381L127.714 38.9903C127.083 38.8654 126.698 38.7334 126.559 38.5942C126.568 38.0526 126.617 37.5605 126.705 37.1179L126.872 36.3776C126.939 36.0423 126.997 35.6775 127.047 35.2833L127.559 33.754C128.138 33.3668 128.759 32.8696 129.423 32.2624C130.1 31.6579 130.722 31.0843 131.29 30.5416C131.894 29.9506 132.355 29.5261 132.671 29.2681C133.632 28.427 134.539 27.2617 135.391 25.772C135.608 25.5222 136.223 24.7381 137.237 23.4197C139.208 20.7857 140.582 19.0926 141.358 18.3404C141.765 17.975 142.142 17.5828 142.49 17.1639C142.372 17.1266 142.282 17.0879 142.22 17.0478C140.702 16.8307 139.078 16.5509 137.348 16.2082L136.604 16.0608C135.343 15.8111 134.221 15.6027 133.236 15.4356C133.081 15.3769 132.889 15.325 132.661 15.2799L132.198 15.1882C131.729 15.0952 131.417 14.9778 131.264 14.836C131.274 14.2944 131.323 13.8023 131.41 13.3597L131.578 12.6194C131.644 12.2841 131.701 11.926 131.749 11.5452L132.265 9.99579C132.562 9.97111 133.026 10.0212 133.657 10.146L134.904 10.3931C135.505 10.4563 135.839 10.4945 135.906 10.5078C135.986 10.5238 136.193 10.5368 136.525 10.5469L139.032 11.0852L140.677 11.432C141.375 11.5701 142.063 11.6855 142.741 11.7781C143.744 11.921 144.501 12.0429 145.01 12.1439C146.19 12.3776 147.348 12.7602 148.483 13.2917C148.517 13.9673 148.426 14.8483 148.211 15.9346C148.027 16.86 147.829 17.4408 147.615 17.6772L147.506 17.8021C144.334 21.6476 142.395 23.8351 141.691 24.3646C141.511 24.4963 141.298 24.8024 141.049 25.2828C138.393 28.7708 135.785 31.8779 133.224 34.6041C133.626 34.6838 134 34.7649 134.346 34.8474L135.976 35.1701C136.673 35.3082 137.361 35.4236 138.04 35.5162L140.325 35.9061C141.492 36.1372 142.644 36.5117 143.782 37.0298C143.799 37.7859 143.703 38.6937 143.493 39.7532C143.344 40.5042 143.158 41.0944 142.933 41.5238C142.853 41.5776 142.572 41.5915 142.089 41.5656C141.609 41.5263 141.048 41.471 140.407 41.3998C139.769 41.3152 139.175 41.2185 138.625 41.1096C138.089 41.0033 137.719 40.9021 137.515 40.806C135.782 40.5464 133.91 40.2175 131.898 39.819C130.637 39.5693 129.515 39.3609 128.531 39.1938Z" fill="#4782CD"/>
<path d="M15.36 129.763C15.1978 128.936 16.0703 128.291 16.8137 128.69L26.2449 133.744C26.559 133.912 26.939 133.901 27.2423 133.714L35.4937 128.622C36.2245 128.171 37.1464 128.791 37.0051 129.638L35.1306 140.877C35.0714 141.232 35.2073 141.591 35.4866 141.818L42.7746 147.735C43.4934 148.318 43.1015 149.481 42.1761 149.511L31.736 149.843C31.3264 149.856 30.9662 150.117 30.8272 150.503L27.1739 160.629C26.8741 161.46 25.7228 161.523 25.3349 160.729L20.3172 150.464C20.1561 150.134 19.8272 149.919 19.4606 149.904L10.0779 149.511C9.22195 149.476 8.80433 148.451 9.39157 147.827L16.9097 139.842C17.1306 139.607 17.2249 139.281 17.163 138.964L15.36 129.763Z" fill="#F5C148"/>
<path d="M135.432 129.182C135.91 128.487 136.981 128.661 137.216 129.471L140.14 139.569C140.239 139.912 140.513 140.175 140.859 140.262L150.098 142.563C150.931 142.77 151.133 143.863 150.428 144.354L141.242 150.754C140.947 150.96 140.785 151.309 140.818 151.667L141.663 160.839C141.748 161.761 140.643 162.293 139.975 161.652L132.58 154.55C132.284 154.266 131.845 154.192 131.473 154.362L121.852 158.746C121.048 159.112 120.199 158.333 120.495 157.5L124.263 146.927C124.386 146.581 124.31 146.196 124.065 145.923L117.902 139.064C117.329 138.427 117.77 137.412 118.627 137.396L129.401 137.196C129.724 137.19 130.023 137.029 130.206 136.764L135.432 129.182Z" fill="#F5C148"/>
</svg>
