<svg width="25" height="26" viewBox="0 0 25 26" fill="none" xmlns="http://www.w3.org/2000/svg">
<path d="M10.7807 1.89271C11.5559 0.588484 13.4441 0.588484 14.2193 1.89271L14.9375 3.10119C15.4237 3.91915 16.4188 4.28135 17.317 3.96724L18.644 3.50318C20.0761 3.00235 21.5226 4.21606 21.2781 5.71342L21.0515 7.10085C20.8981 8.03994 21.4276 8.95706 22.3176 9.29378L23.6324 9.79127C25.0514 10.3282 25.3793 12.1877 24.2295 13.1776L23.1641 14.0947C22.443 14.7155 22.2591 15.7585 22.7244 16.5885L23.4118 17.8147C24.1538 19.1381 23.2096 20.7734 21.6926 20.7926L20.2869 20.8104C19.3354 20.8224 18.5242 21.5031 18.3471 22.438L18.0855 23.8193C17.8032 25.31 16.0288 25.9558 14.8544 24.9953L13.7661 24.1054C13.0295 23.503 11.9705 23.503 11.2339 24.1054L10.1456 24.9953C8.97117 25.9558 7.19683 25.31 6.9145 23.8193L6.65288 22.438C6.47581 21.5031 5.66457 20.8224 4.71312 20.8104L3.30742 20.7926C1.79035 20.7734 0.846246 19.1381 1.58816 17.8147L2.27561 16.5885C2.74091 15.7585 2.55702 14.7156 1.8359 14.0947L0.770502 13.1776C-0.379304 12.1877 -0.0514196 10.3282 1.3676 9.79127L2.68244 9.29378C3.57239 8.95706 4.10189 8.03994 3.94853 7.10085L3.72195 5.71342C3.47741 4.21606 4.92386 3.00235 6.35601 3.50318L7.68301 3.96724C8.5812 4.28135 9.57634 3.91915 10.0625 3.10119L10.7807 1.89271Z" fill="#7BC35A"/>
</svg>
