<svg width="185" height="136" viewBox="0 0 185 136" fill="none" xmlns="http://www.w3.org/2000/svg">
<path fill-rule="evenodd" clip-rule="evenodd" d="M113.018 90.6594C113.018 90.6594 113.018 90.6594 113.018 90.6594C122.829 94.0804 122.865 110.771 125.202 120.544C155.211 197.265 206.841 -39.2156 130.154 11.5248C126.217 14.13 121.668 16.0666 116.962 16.4469L114.952 16.6095C113.665 16.7135 112.372 16.7135 111.085 16.6095L109.074 16.4469C104.368 16.0666 99.8197 14.13 95.8824 11.5249C19.1956 -39.2156 70.8254 197.265 100.835 120.544C103.171 110.771 103.207 94.0804 113.018 90.6594C113.018 90.6594 113.018 90.6594 113.018 90.6594V90.6594Z" fill="#F6D271"/>
<path d="M103.168 41.0729C103.168 48.7849 96.9164 55.0367 89.2045 55.0367C81.4925 55.0367 75.2407 48.7849 75.2407 41.0729C75.2407 33.361 82.7619 25.8398 90.4739 25.8398C98.1858 25.8398 103.168 33.361 103.168 41.0729Z" fill="url(#paint0_radial_39_174)"/>
<circle cx="89.2056" cy="41.073" r="6.34715" fill="#48528A"/>
<circle cx="84.1286" cy="38.5342" r="3.80829" fill="white"/>
<path d="M150.645 36.8204C150.645 44.5323 144.393 50.7841 136.682 50.7841C128.97 50.7841 122.718 44.5323 122.718 36.8204C122.718 29.1084 130.239 21.5872 137.951 21.5872C145.663 21.5872 150.645 29.1084 150.645 36.8204Z" fill="url(#paint1_radial_39_174)"/>
<circle cx="136.68" cy="36.8204" r="6.34715" fill="#48528A"/>
<circle cx="131.606" cy="34.2816" r="3.80829" fill="white"/>
<path d="M101.146 78.3483C109.524 83.9338 123.488 79.7447 129.073 75.5555" stroke="#D95930" stroke-width="5.08" stroke-linecap="round"/>
<path d="M112.479 50.7301L107.113 60.0304C106.182 61.6445 107.77 63.5428 109.523 62.9116L117.876 59.9047" stroke="#ECB75E" stroke-width="7" stroke-linecap="round"/>
<path d="M91.9707 10.7936C86.5739 10.7936 69.304 19.9682 68.7643 23.2063" stroke="#D95930" stroke-width="10" stroke-linecap="round"/>
<path d="M155.475 12.1911C150.883 9.35599 131.369 8.09017 129.208 10.5619" stroke="#D95930" stroke-width="10" stroke-linecap="round"/>
<path d="M59.3437 63.3223C42.3782 64.4029 21.6426 87.0949 18.3438 59" stroke="#F6D271" stroke-width="7" stroke-linecap="round"/>
<path d="M2.85815 52.1539C9.5676 41.9753 15.8449 50.0923 20.5615 53.2653C21.3903 53.8229 21.9024 54.8412 21.5963 55.792C15.85 73.6382 -0.0264796 56.5301 2.85815 52.1539Z" fill="#F6D271"/>
<path d="M18.3437 57C17.8515 55.5551 18.0101 44.4185 22.1105 43.9863" stroke="#F6D271" stroke-width="7" stroke-linecap="round"/>
<path d="M166.447 65.8412C170.225 72.8571 180.479 91.2064 179.4 104.159" stroke="#F6D271" stroke-width="7" stroke-linecap="round"/>
<path d="M172.281 105.892C176.24 95.7719 179.42 99.3922 181.984 101.44C182.855 102.136 183.558 103.334 183.304 104.419C179.139 122.145 170.393 110.72 172.281 105.892Z" fill="#F6D271"/>
<defs>
<radialGradient id="paint0_radial_39_174" cx="0" cy="0" r="1" gradientUnits="userSpaceOnUse" gradientTransform="translate(89.2045 40.4382) rotate(90) scale(14.5984 13.9637)">
<stop offset="0.263763" stop-color="#FAFAFA"/>
<stop offset="1" stop-color="#F7F5F5"/>
</radialGradient>
<radialGradient id="paint1_radial_39_174" cx="0" cy="0" r="1" gradientUnits="userSpaceOnUse" gradientTransform="translate(136.682 36.1857) rotate(90) scale(14.5984 13.9637)">
<stop offset="0.263763" stop-color="#FAFAFA"/>
<stop offset="1" stop-color="#F7F5F5"/>
</radialGradient>
</defs>
</svg>
