<svg width="355" height="330" viewBox="0 0 355 330" fill="none" xmlns="http://www.w3.org/2000/svg">
<path d="M57.0675 110.685C38.3303 121.035 -12.9649 185.857 90.3434 221.841C94.9828 258.228 137.636 284.854 181.519 260.749C216.023 294.319 264.477 280.207 268.01 236.869C316.47 247.061 313.481 164.925 282.221 152.499C294.288 99.0192 234.657 53.8419 183.199 78.8936C164.45 49.4893 111.073 41.0378 93.9332 79.4652C66.6722 64.7481 50.4978 86.6777 57.0675 110.685Z" stroke="#FF276C" stroke-width="2.14079" stroke-linecap="round" stroke-linejoin="round"/>
<path d="M234.868 267.444C243.238 263.996 251.211 253.222 252.377 241.794" stroke="#4782CD" stroke-width="1.60559" stroke-linecap="round" stroke-linejoin="round"/>
<path d="M234.732 272.27C254.145 266.827 260.785 242.821 259.992 230.865" stroke="#4782CD" stroke-width="1.60559" stroke-linecap="round" stroke-linejoin="round"/>
<path d="M245.507 282.898C263.163 281.067 273.392 261.48 272.622 253.101" stroke="#FF276C" stroke-width="1.60559" stroke-miterlimit="10" stroke-linecap="round"/>
<path d="M268.306 276.328C270.787 275.311 274.689 267.902 275.722 263.063" stroke="#FF276C" stroke-width="1.60559" stroke-miterlimit="10" stroke-linecap="round"/>
<path d="M103.57 226.881C105.34 242.566 125.195 256.195 132.349 257.635" stroke="#4782CD" stroke-width="1.60559" stroke-linecap="round" stroke-linejoin="round"/>
<path d="M101.981 237.963C105.778 246.347 112.308 250.747 116.966 254.524" stroke="#4782CD" stroke-width="1.60559" stroke-linecap="round" stroke-linejoin="round"/>
<path d="M68.5406 200.818C50.7633 190.092 33.6641 168.728 49.1086 139.667" stroke="#4782CD" stroke-width="1.60559" stroke-linecap="round" stroke-linejoin="round"/>
<path d="M54.3936 195.839C48.0999 190.31 43.096 183.468 39.7349 175.795" stroke="#4782CD" stroke-width="1.60559" stroke-linecap="round" stroke-linejoin="round"/>
<path d="M36.4042 167.186C34.4618 160.586 36.4256 152.124 38.5513 149.011" stroke="#4782CD" stroke-width="1.60559" stroke-linecap="round" stroke-linejoin="round"/>
<path d="M64.0189 105.331C61.8886 101.609 62.047 96.617 65.0043 89.3971" stroke="#4782CD" stroke-width="1.60559" stroke-linecap="round" stroke-linejoin="round"/>
<path d="M67.1584 98.1015C69.7065 90.2644 76.6615 84.2584 81.6614 83.1529" stroke="#4782CD" stroke-width="1.60559" stroke-linecap="round" stroke-linejoin="round"/>
<path d="M132.325 61.7305C148.779 59.6049 168.618 70.8493 172.953 77.4178" stroke="#4782CD" stroke-width="1.60559" stroke-linecap="round" stroke-linejoin="round"/>
<path d="M139.312 66.8115C149.308 66.381 161.609 72.1348 166.996 78.0527" stroke="#4782CD" stroke-width="1.60559" stroke-linecap="round" stroke-linejoin="round"/>
<path d="M253.112 106.471C262.96 112.662 266.6 122.454 268.987 133.867" stroke="#4782CD" stroke-width="1.60559" stroke-linecap="round" stroke-linejoin="round"/>
<path d="M247.459 89.0155C264.469 97.8384 278.909 120.944 274.745 139.354" stroke="#4782CD" stroke-width="1.60559" stroke-linecap="round" stroke-linejoin="round"/>
<path d="M282.699 181.966C288.79 184.963 290.471 197.811 288.195 203.366" stroke="#4782CD" stroke-width="1.60559" stroke-linecap="round" stroke-linejoin="round"/>
<path d="M291.006 187.101C293.401 191.25 294.644 197.783 293.596 201.724" stroke="#4782CD" stroke-width="1.60559" stroke-linecap="round" stroke-linejoin="round"/>
<path d="M279.173 161.714C293.311 166.43 300.032 191.78 297.289 203.839" stroke="#4782CD" stroke-width="1.60559" stroke-linecap="round" stroke-linejoin="round"/>
<path d="M193.041 65.811C203.302 61.0552 215.004 62.7516 225.035 67.6856" stroke="#FF276C" stroke-width="1.60559" stroke-miterlimit="10" stroke-linecap="round"/>
<path d="M195.32 59.3667C202.682 56.2546 210.917 55.8853 218.528 58.3258" stroke="#FF276C" stroke-width="1.60559" stroke-miterlimit="10" stroke-linecap="round"/>
<path d="M313.478 157.24C300.475 161.974 293.557 140.766 297.623 131.616C302.371 121.038 314.869 126.592 318.002 135.402C320.495 142.411 317.367 153.924 308.006 151.696" stroke="#FF276C" stroke-width="2.14079" stroke-miterlimit="10" stroke-linecap="round"/>
<path d="M341.953 148.272C333.914 146.536 324.963 133.973 333.658 125.357C340.05 119.609 347.959 127.044 349.24 133.458C350.708 140.418 341.304 147.497 336.421 138.421" stroke="#FF276C" stroke-width="2.14079" stroke-miterlimit="10" stroke-linecap="round"/>
</svg>
