<svg width="1534" height="825" viewBox="0 0 1534 825" fill="none" xmlns="http://www.w3.org/2000/svg">
<path fill-rule="evenodd" clip-rule="evenodd" d="M788.175 57.0685C783.918 60.5612 786.939 69.5841 787.556 75.2551C786.573 122.891 714.392 -3.40456 769.006 18.5332L774.721 17.1496L780.108 14.7915C810.303 -35.7284 829.292 108.494 799.676 71.1702C796.735 66.2827 793.678 57.2718 788.175 57.0685L788.175 57.0685Z" fill="#FFDDF6"/>
<path fill-rule="evenodd" clip-rule="evenodd" d="M84.8399 571.75C86.5759 574.261 83.5889 578.609 82.395 581.538C75.6498 607.077 133.393 550.778 100.937 554.136L98.1017 552.527L95.5904 550.448C87.2061 518.914 55.0784 592.885 76.5582 577.511C78.8717 575.355 81.8758 571.019 84.8399 571.75L84.8399 571.75Z" fill="#FFF2D7"/>
<path fill-rule="evenodd" clip-rule="evenodd" d="M461.002 71.0747C463.871 73.47 461.768 79.5762 461.316 83.4215C461.705 115.757 511.431 30.4622 474.236 45.0328L470.365 44.0604L466.723 42.4286C446.525 7.96477 432.796 105.737 453.114 80.5784C455.139 77.2785 457.266 71.1806 461.002 71.0747L461.002 71.0747Z" fill="#F3D78D"/>
<path fill-rule="evenodd" clip-rule="evenodd" d="M30.1987 323.199C27.6322 324.355 24.1858 320.922 21.7284 319.352C-0.31236 308.983 41.1392 370.726 43.4949 340.73L45.4266 338.427L47.7301 336.495C77.7263 334.139 15.9834 292.688 26.352 314.728C27.9225 317.186 31.3554 320.632 30.1987 323.199L30.1987 323.199Z" fill="#EDDFF5"/>
<path fill-rule="evenodd" clip-rule="evenodd" d="M1404.2 115.083C1402.46 112.572 1405.45 108.224 1406.64 105.296C1413.39 79.7568 1355.65 136.056 1388.1 132.697L1390.94 134.307L1393.45 136.385C1401.83 167.919 1433.96 93.9486 1412.48 109.322C1410.17 111.478 1407.16 115.815 1404.2 115.083L1404.2 115.083Z" fill="#FFF2D7"/>
<path fill-rule="evenodd" clip-rule="evenodd" d="M1478.43 332.265C1485.37 329.14 1494.68 338.418 1501.32 342.662C1560.9 370.687 1448.86 203.807 1442.49 284.881L1437.27 291.107L1431.05 296.328C1349.97 302.695 1516.85 414.732 1488.83 355.159C1484.58 348.518 1475.3 339.203 1478.43 332.265L1478.43 332.265Z" fill="#EDDFF5"/>
<path fill-rule="evenodd" clip-rule="evenodd" d="M50.8063 151.228C55.354 156.793 49.166 167.56 46.9173 174.657C35.9124 235.858 160.776 92.8464 85.2517 106.857L78.2952 103.616L72.0099 99.2119C46.3811 26.8003 -15.039 206.442 32.4608 166.31C37.4824 160.814 43.7127 150.072 50.8062 151.228L50.8063 151.228Z" fill="white"/>
<path fill-rule="evenodd" clip-rule="evenodd" d="M599.282 768.163C594.061 769.373 588.894 761.687 584.886 757.845C547.56 730.324 602.126 860.974 617.626 805.825L622.086 802.238L627.102 799.483C683.995 806.184 584.025 705.92 595.232 750.921C597.256 756.091 602.392 763.798 599.282 768.163L599.282 768.163Z" fill="#EDDFF5"/>
<path d="M681.071 686.684L680.754 686.501L680.392 686.442C675.581 685.658 671.44 688.935 668.229 692.309C666.556 694.067 664.97 696.034 663.508 697.872C663.349 698.072 663.192 698.27 663.036 698.466C661.769 700.061 660.611 701.52 659.517 702.727C656.544 705.228 654.095 706.788 652.125 707.617C650.126 708.459 648.811 708.472 647.966 708.193C647.168 707.93 646.427 707.284 645.82 705.956C645.199 704.597 644.792 702.662 644.663 700.164C644.142 690.094 648.212 673.261 654.769 657.239C658.03 649.269 661.871 641.59 665.986 635.148C670.122 628.676 674.449 623.588 678.64 620.656C682.794 617.75 686.486 617.15 689.802 618.871C693.328 620.701 697.035 625.429 700.334 634.749L700.548 635.352L701.072 635.719L707.637 640.32L707.781 640.42L707.94 640.494L715.207 643.88L715.787 644.151L716.416 644.034C726.137 642.231 732.085 643.077 735.433 645.216C738.581 647.228 739.908 650.725 739.468 655.776C739.024 660.87 736.782 667.162 733.244 673.98C729.723 680.765 724.993 687.93 719.722 694.739C709.124 708.429 696.582 720.37 687.6 724.954C685.372 726.091 683.494 726.706 682.006 726.848C680.552 726.986 679.623 726.667 678.996 726.108C678.332 725.516 677.685 724.37 677.415 722.219C677.148 720.098 677.275 717.197 677.954 713.371C678.452 711.821 679.136 710.089 679.884 708.196C679.976 707.962 680.069 707.727 680.163 707.488C681.024 705.303 681.935 702.945 682.621 700.618C683.937 696.15 684.704 690.925 681.619 687.15L681.388 686.867L681.071 686.684Z" stroke="white" stroke-width="4"/>
<path d="M78.3248 748.347L78.0511 748.368L77.7876 748.291C75.4738 747.613 74.4157 745.303 73.8133 743.449C73.4895 742.452 73.2404 741.397 73.0209 740.44C72.9971 740.336 72.9737 740.234 72.9505 740.133C72.7638 739.316 72.5986 738.593 72.4157 737.972C71.7673 736.547 71.1641 735.594 70.6365 735C70.0943 734.389 69.7352 734.269 69.5832 734.249C69.4677 734.234 69.2502 734.247 68.8791 734.557C68.4883 734.883 68.0332 735.46 67.554 736.341C65.6092 739.917 64.1122 746.885 63.6942 754.084C63.4871 757.65 63.5496 761.2 63.9332 764.325C64.3201 767.479 65.02 770.08 66.0094 771.833C66.9826 773.557 68.0749 774.225 69.2994 774.186C70.7014 774.141 72.7997 773.178 75.6938 770.291L76.0337 769.952L76.5072 769.873L79.8153 769.323L79.9451 769.301L80.0768 769.303L83.43 769.337L83.9101 769.342L84.298 769.625C87.6016 772.033 89.823 772.662 91.2152 772.491C92.4313 772.342 93.408 771.514 94.1045 769.661C94.8127 767.776 95.1042 765.098 95.0018 761.923C94.9003 758.775 94.4163 755.258 93.6635 751.766C92.1437 744.717 89.5933 738.062 87.1219 734.828C86.5129 734.031 85.9745 733.531 85.5383 733.269C85.1239 733.02 84.9071 733.041 84.7952 733.073C84.648 733.116 84.3117 733.29 83.8698 733.977C83.4398 734.645 82.9903 735.679 82.5688 737.187C82.4835 737.828 82.4314 738.567 82.3726 739.403C82.3652 739.507 82.3578 739.612 82.3502 739.719C82.2806 740.698 82.1967 741.779 82.0299 742.814C81.7196 744.738 81.0292 747.184 78.8469 748.209L78.5985 748.326L78.3248 748.347Z" stroke="white" stroke-width="3"/>
<path d="M297.325 81.3469L297.051 81.3681L296.788 81.291C294.474 80.6134 293.416 78.3026 292.813 76.449C292.489 75.4525 292.24 74.3975 292.021 73.4404C291.997 73.3364 291.974 73.2339 291.951 73.1328C291.764 72.3155 291.599 71.5929 291.416 70.9724C290.767 69.5471 290.164 68.5943 289.636 67.9998C289.094 67.3889 288.735 67.2687 288.583 67.2492C288.468 67.2344 288.25 67.247 287.879 67.557C287.488 67.8832 287.033 68.4599 286.554 69.341C284.609 72.9167 283.112 79.885 282.694 87.0838C282.487 90.6497 282.55 94.1996 282.933 97.3255C283.32 100.479 284.02 103.08 285.009 104.833C285.983 106.557 287.075 107.225 288.299 107.186C289.701 107.141 291.8 106.178 294.694 103.291L295.034 102.952L295.507 102.873L298.815 102.323L298.945 102.301L299.077 102.303L302.43 102.337L302.91 102.342L303.298 102.625C306.602 105.033 308.823 105.662 310.215 105.491C311.431 105.342 312.408 104.514 313.104 102.661C313.813 100.776 314.104 98.0981 314.002 94.923C313.9 91.7754 313.416 88.258 312.663 84.7664C311.144 77.7174 308.593 71.0621 306.122 67.8279C305.513 67.031 304.975 66.5311 304.538 66.2688C304.124 66.0196 303.907 66.0405 303.795 66.0729C303.648 66.1155 303.312 66.2895 302.87 66.9765C302.44 67.6451 301.99 68.6792 301.569 70.1872C301.483 70.8283 301.431 71.5675 301.373 72.4034C301.365 72.5071 301.358 72.6123 301.35 72.719C301.281 73.6984 301.197 74.7791 301.03 75.8137C300.72 77.7379 300.029 80.1839 297.847 81.2091L297.598 81.3258L297.325 81.3469Z" stroke="white" stroke-width="3"/>
</svg>
