<svg width="1479" height="977" viewBox="0 0 1479 977" fill="none" xmlns="http://www.w3.org/2000/svg">
<path fill-rule="evenodd" clip-rule="evenodd" d="M296.998 75.1036C291.313 79.7683 295.348 91.8189 296.171 99.3928C294.859 163.013 198.457 -5.66178 271.397 23.6374L279.03 21.7895L286.225 18.6402C326.551 -48.8322 351.912 143.785 312.359 93.9372C308.43 87.4097 304.348 75.3751 296.998 75.1036L296.998 75.1036Z" fill="#DBF4FA"/>
<path fill-rule="evenodd" clip-rule="evenodd" d="M1442.17 942.234C1437.92 945.726 1440.94 954.749 1441.56 960.42C1440.57 1008.06 1368.39 881.761 1423.01 903.698L1428.72 902.315L1434.11 899.957C1464.3 849.437 1483.29 993.659 1453.68 956.335C1450.73 951.448 1447.68 942.437 1442.17 942.234L1442.17 942.234Z" fill="#FFDDF6"/>
<path fill-rule="evenodd" clip-rule="evenodd" d="M1180.84 894.916C1182.58 897.427 1179.59 901.775 1178.39 904.704C1171.65 930.242 1229.39 873.943 1196.94 877.302L1194.1 875.693L1191.59 873.614C1183.21 842.08 1151.08 916.051 1172.56 900.677C1174.87 898.521 1177.88 894.185 1180.84 894.916L1180.84 894.916Z" fill="#FFF2D7"/>
<path fill-rule="evenodd" clip-rule="evenodd" d="M1339.32 845.094C1342.87 848.052 1340.27 855.594 1339.71 860.343C1340.19 900.282 1401.61 794.933 1355.67 812.929L1350.89 811.728L1346.39 809.712C1321.44 767.146 1304.49 887.905 1329.58 856.832C1332.08 852.756 1334.71 845.224 1339.32 845.094L1339.32 845.094Z" fill="#EDDFF5"/>
<path fill-rule="evenodd" clip-rule="evenodd" d="M51.582 545.958C53.5138 548.321 50.8852 552.895 49.9301 555.91C45.2553 581.908 98.2959 521.158 66.214 527.109L63.259 525.733L60.589 523.862C49.7022 493.102 23.6118 569.412 43.7891 552.364C45.9222 550.03 48.5688 545.466 51.582 545.958L51.582 545.958Z" fill="#EDDFF5"/>
<path fill-rule="evenodd" clip-rule="evenodd" d="M20.3518 266.898C22.7119 264.961 21.037 259.959 20.6952 256.815C21.2398 230.406 61.2568 300.424 30.9789 288.262L27.8104 289.029L24.8239 290.336C8.0842 318.344 -2.44312 238.388 13.9756 259.08C15.6063 261.789 17.3009 266.785 20.3518 266.898L20.3518 266.898Z" fill="#FBF0D3"/>
<path fill-rule="evenodd" clip-rule="evenodd" d="M1270.28 50.1629C1265.06 51.373 1259.89 43.6864 1255.89 39.8443C1218.56 12.3234 1273.13 142.973 1288.63 87.8246L1293.09 84.2376L1298.1 81.4824C1354.99 88.1835 1255.02 -12.0798 1266.23 32.9203C1268.26 38.0905 1273.39 45.7974 1270.28 50.1629L1270.28 50.1629Z" fill="#F5E7C0"/>
</svg>
